<svg width="43" height="57" viewBox="0 0 43 57" fill="none" xmlns="http://www.w3.org/2000/svg">
<path d="M22.6401 0C18.8772 0 15.8001 3.07711 15.8001 6.84C15.8001 10.6029 18.8772 13.68 22.6401 13.68C26.403 13.68 29.4801 10.6029 29.4801 6.84C29.4801 3.07711 26.403 0 22.6401 0ZM22.6401 2.28C25.1739 2.28 27.2001 4.30617 27.2001 6.84C27.2001 9.37383 25.1739 11.4 22.6401 11.4C20.1063 11.4 18.0801 9.37383 18.0801 6.84C18.0801 4.30617 20.1063 2.28 22.6401 2.28ZM17.4032 14.82C16.7709 14.82 16.1341 14.9981 15.5507 15.2831C15.5418 15.2876 15.524 15.2787 15.5151 15.2831L5.64699 19.7006C4.48918 20.1994 3.83457 21.2459 3.54511 22.2656L1.01574 31.1719C0.512535 33.0199 1.71043 34.8902 3.54511 35.3756C1.94199 37.6155 0.980113 40.3631 0.980113 43.32C0.980113 50.8636 7.11652 57 14.6601 57C20.369 57 25.2585 53.4642 27.307 48.4856L34.3607 55.5394C34.5789 55.7531 34.8773 55.8689 35.1801 55.86H40.8801C41.2898 55.8645 41.6728 55.6507 41.8821 55.2945C42.0869 54.9382 42.0869 54.5018 41.8821 54.1455C41.6728 53.7893 41.2898 53.5755 40.8801 53.58H35.6789L28.0551 45.9562C28.2243 45.0968 28.3401 44.2284 28.3401 43.32C28.3401 42.5363 28.251 41.7881 28.1264 41.04H30.5489L34.2182 49.7681C34.2227 49.7859 34.2494 49.7859 34.2539 49.8037C34.9129 51.5538 36.712 52.7651 38.6714 52.44C38.6847 52.4266 38.6936 52.4177 38.707 52.4044C41.1651 51.9457 42.6035 49.3495 41.6995 47.025V46.9894L36.9257 34.485C36.9168 34.4627 36.9035 34.436 36.8901 34.4137C36.2667 33.0066 34.9263 31.92 33.2564 31.92H25.8107L27.307 22.1588C27.8547 18.3202 24.8934 14.82 20.9301 14.82H17.4032ZM17.4032 17.1H20.9301C23.5797 17.1 25.4278 19.2909 25.0626 21.8381L23.3526 32.775C21.3621 31.1318 18.8906 30.0497 16.192 29.7469L17.3676 22.4081C17.4344 22.0073 17.2786 21.5977 16.9624 21.3438C16.6462 21.0855 16.2143 21.0143 15.8357 21.1612L8.28324 24.2606C7.96707 24.3987 7.73105 24.6748 7.64199 25.0087L5.57574 32.1694C5.38425 32.8017 4.71629 33.2871 4.29324 33.2025C4.27988 33.2025 4.27097 33.2025 4.25761 33.2025C3.53621 33.0823 3.07308 32.3341 3.22449 31.7775L5.71824 22.8713C5.883 22.2923 6.13683 21.9895 6.57324 21.8025L16.477 17.3494C16.4993 17.3405 16.526 17.3271 16.5482 17.3137C16.8689 17.1534 17.1361 17.1 17.4032 17.1ZM14.8026 24.0825L13.912 29.6756C11.8769 29.787 9.95316 30.3347 8.24761 31.2431L9.67261 26.1488L14.8026 24.0825ZM14.6601 31.92C20.9702 31.92 26.0601 37.0099 26.0601 43.32C26.0601 49.6301 20.9702 54.72 14.6601 54.72C8.35004 54.72 3.26011 49.6301 3.26011 43.32C3.26011 37.0099 8.35004 31.92 14.6601 31.92ZM24.8132 34.2H33.2564C33.8486 34.2 34.4899 34.6809 34.7882 35.3044C34.7971 35.3222 34.815 35.3222 34.8239 35.34L39.5976 47.8444C40.0251 48.9131 39.4551 49.9151 38.3151 50.16C37.5536 50.2847 36.6229 49.7191 36.3557 48.9844C36.3557 48.9621 36.3557 48.9354 36.3557 48.9131L32.3657 39.4725C32.1921 39.0361 31.7646 38.7555 31.297 38.76H27.5564C26.9507 37.0589 25.9978 35.5181 24.8132 34.2ZM14.6601 41.04C13.3999 41.04 12.3801 42.0598 12.3801 43.32C12.3801 44.5802 13.3999 45.6 14.6601 45.6C15.9203 45.6 16.9401 44.5802 16.9401 43.32C16.9401 42.0598 15.9203 41.04 14.6601 41.04Z" fill="black"/>
</svg>
