<svg width="38" height="35" viewBox="0 0 38 35" fill="none" xmlns="http://www.w3.org/2000/svg">
    <path d="M14.563.4a2.832 2.832 0 0 0-2.813 2.812v2.813H4.719A4.234 4.234 0 0 0 .5 10.244V29.93c0 2.318 1.9 4.219 4.219 4.219h28.125c2.318 0 4.218-1.9 4.218-4.219V10.244c0-2.318-1.9-4.22-4.218-4.22h-7.032V3.213A2.832 2.832 0 0 0 23 .4h-8.438Zm0 2.812H23v2.813h-8.438V3.212ZM4.719 8.837h28.125c.79 0 1.406.616 1.406 1.407V29.93c0 .791-.615 1.406-1.406 1.406H4.719a1.388 1.388 0 0 1-1.407-1.406V10.244c0-.791.616-1.407 1.407-1.407Zm12.656 2.813v5.625H11.75v2.812h5.625v5.625h2.813v-5.625h5.625v-2.812h-5.625V11.65h-2.813Z"
          fill="#0B0C0C"/>
</svg>