<svg width="50" height="52" viewBox="0 0 50 52" fill="none" xmlns="http://www.w3.org/2000/svg">
<path d="M21.5546 0.299805C20.3314 0.299805 19.324 1.27404 19.2107 2.51484C14.3685 3.12974 11.6889 7.8215 11.5085 12.4041C10.381 12.8067 9.29994 13.7187 9.29994 16.7998C9.29994 17.3047 9.64404 17.7444 10.1335 17.8676C10.1972 17.8835 10.9381 18.0332 11.9726 18.2092C12.0927 18.8485 12.2356 19.4448 12.4066 20.0719C12.4231 20.1335 12.4395 20.195 12.456 20.2588C11.9346 20.8066 11.4988 21.6086 11.4999 22.5898C11.4999 22.7581 11.5091 22.9336 11.5322 23.1184C11.7995 25.3393 12.7985 26.5275 13.8138 27.0027C14.135 28.7396 14.933 30.6669 15.8999 31.6283V34.1828C15.2091 35.6887 13.0053 36.4849 10.4665 37.4012C6.20624 38.939 0.903592 40.8551 0.502092 47.5354C0.483392 47.8368 0.590677 48.1339 0.798577 48.3539C1.00648 48.575 1.29744 48.6998 1.59994 48.6998H34.5999V46.4998H2.84174C3.66674 42.1955 7.49735 40.811 11.2121 39.4701C14.2272 38.3811 17.0753 37.3529 18.0312 34.7822C18.0774 34.6601 18.0999 34.5307 18.0999 34.3998V31.0998C18.0999 30.728 17.8333 30.3344 17.522 30.1309C17.1513 29.8889 16.1201 28.1546 15.8935 26.0316C15.8385 25.5146 15.4061 25.1059 14.8902 25.052C14.6515 25.0278 13.925 24.5701 13.7193 22.8563C13.7061 22.7628 13.6999 22.6735 13.6999 22.5877C13.6999 21.9563 14.2659 21.5941 14.2714 21.5908C14.685 21.3389 14.8877 20.8434 14.7656 20.3748C14.6831 20.0558 14.604 19.7646 14.5292 19.4896C14.4571 19.2256 14.385 18.878 14.3122 18.5465C16.3601 18.7865 19.0901 18.9998 22.5064 18.9998C25.9982 18.9998 28.7713 18.778 30.8294 18.5314C30.697 19.0162 30.5541 19.4358 30.4191 19.8227L30.2558 20.3039C30.0941 20.7901 30.2896 21.3257 30.7285 21.5908C30.734 21.5952 31.301 21.9456 31.2999 22.577C31.2999 22.6617 31.2938 22.7499 31.2828 22.8434C31.076 24.5627 30.3495 25.0266 30.1119 25.0541C29.585 25.097 29.1636 25.508 29.1064 26.0338C28.8787 28.1546 27.8483 29.8922 27.4886 30.1287C27.1267 30.3168 26.8999 30.6917 26.8999 31.0998V34.3998C26.8999 34.5307 26.9236 34.6612 26.9687 34.7844C27.9257 37.3551 30.7738 38.3822 33.7878 39.4723C34.0573 39.5702 34.3272 39.6761 34.5978 39.7773V37.4248C34.5765 37.4173 34.5568 37.4086 34.5355 37.4012C31.9956 36.4849 29.7907 35.6887 29.0999 34.1828V31.6262C30.069 30.6615 30.8681 28.7247 31.1882 26.9834C32.1287 26.5236 33.1916 25.4012 33.4677 23.1033C33.4897 22.9196 33.4999 22.7431 33.4999 22.577C33.5021 21.6255 33.0885 20.8441 32.5847 20.2996C32.7771 19.7417 32.9758 19.0263 33.1497 18.1898C34.1143 18.0227 34.8049 17.8829 34.8663 17.8676C35.3558 17.7444 35.6999 17.3047 35.6999 16.7998C35.6999 13.6967 34.62 12.785 33.4892 12.3912C33.3044 7.81191 30.6292 3.12754 25.7892 2.51484C25.677 1.27404 24.6685 0.299805 23.4431 0.299805H21.5546ZM21.5568 2.4998H23.4431C23.4816 2.4998 23.5999 2.58738 23.5999 2.74688V10.1998C23.5999 10.807 24.0927 11.2998 24.6999 11.2998C25.3071 11.2998 25.7999 10.807 25.7999 10.1998V4.74062C29.7841 5.44683 31.2999 9.96454 31.2999 12.8982C31.2999 14.0444 32.3041 14.3344 32.6341 14.4301C32.9399 14.5181 33.3413 14.6332 33.4634 15.9146C31.8453 16.2193 28.035 16.7998 22.5064 16.7998C16.9756 16.7998 13.1568 16.2172 11.5365 15.9125C11.6564 14.6508 12.0498 14.5334 12.3765 14.4344C12.7032 14.3354 13.6999 14.0345 13.6999 12.8982C13.6999 9.84684 15.1893 5.42273 19.1999 4.73633V10.1998C19.1999 10.807 19.6927 11.2998 20.2999 11.2998C20.9071 11.2998 21.3999 10.807 21.3999 10.1998V2.74688C21.3999 2.58738 21.5172 2.4998 21.5568 2.4998ZM37.8999 18.9998C37.6082 18.9998 37.3284 19.1157 37.1222 19.322C36.9159 19.5283 36.8 19.8081 36.7999 20.0998V42.0998V48.6998C36.7999 50.5093 38.2905 51.9998 40.0999 51.9998H46.6999C48.5094 51.9998 49.9999 50.5093 49.9999 48.6998V44.2998C49.9999 44.0081 49.884 43.7283 49.6777 43.5221L48.2554 42.0998L49.6777 40.6775C49.8839 40.4712 49.9997 40.1915 49.9997 39.8998C49.9997 39.6081 49.8839 39.3284 49.6777 39.1221L47.1554 36.5998L48.5777 35.1775C48.7839 34.9712 48.8997 34.6915 48.8997 34.3998C48.8997 34.1081 48.7839 33.8284 48.5777 33.6221L46.0554 31.0998L47.4777 29.6775C47.6839 29.4712 47.7997 29.1915 47.7997 28.8998C47.7997 28.6081 47.6839 28.3284 47.4777 28.1221L44.9554 25.5998L46.3777 24.1775C46.5839 23.9712 46.6997 23.6915 46.6997 23.3998C46.6997 23.1081 46.5839 22.8284 46.3777 22.6221L43.0777 19.3221C42.8714 19.1158 42.5917 18.9999 42.2999 18.9998H37.8999ZM38.9999 21.1998H41.8445L44.0445 23.3998L42.6222 24.8221C42.416 25.0284 42.3002 25.3081 42.3002 25.5998C42.3002 25.8915 42.416 26.1712 42.6222 26.3775L45.1445 28.8998L43.7222 30.3221C43.516 30.5284 43.4002 30.8081 43.4002 31.0998C43.4002 31.3915 43.516 31.6712 43.7222 31.8775L46.2445 34.3998L44.8222 35.8221C44.616 36.0284 44.5002 36.3081 44.5002 36.5998C44.5002 36.8915 44.616 37.1712 44.8222 37.3775L47.3445 39.8998L46.2445 40.9998H38.9999V21.1998ZM38.9999 43.1998H46.2445L47.7999 44.7553V48.6998C47.7999 49.3213 47.3215 49.7998 46.6999 49.7998H40.0999C39.4784 49.7998 38.9999 49.3213 38.9999 48.6998V43.1998ZM42.2999 45.3998C42.1542 45.3977 42.0095 45.4247 41.8742 45.479C41.7389 45.5334 41.6158 45.6141 41.512 45.7164C41.4082 45.8188 41.3258 45.9407 41.2695 46.0752C41.2132 46.2097 41.1843 46.354 41.1843 46.4998C41.1843 46.6456 41.2132 46.7899 41.2695 46.9244C41.3258 47.0589 41.4082 47.1808 41.512 47.2832C41.6158 47.3855 41.7389 47.4662 41.8742 47.5206C42.0095 47.5749 42.1542 47.6019 42.2999 47.5998H44.4999C44.6457 47.6019 44.7904 47.5749 44.9257 47.5206C45.061 47.4662 45.1841 47.3855 45.2879 47.2832C45.3917 47.1808 45.4741 47.0589 45.5304 46.9244C45.5866 46.7899 45.6156 46.6456 45.6156 46.4998C45.6156 46.354 45.5866 46.2097 45.5304 46.0752C45.4741 45.9407 45.3917 45.8188 45.2879 45.7164C45.1841 45.6141 45.061 45.5334 44.9257 45.479C44.7904 45.4247 44.6457 45.3977 44.4999 45.3998H42.2999Z" fill="black"/>
</svg>
