<svg width="50" height="44" viewBox="0 0 50 44" fill="none" xmlns="http://www.w3.org/2000/svg">
<path d="M17 0C15.3555 0 14 1.35547 14 3C14 4.29297 14.8438 5.39453 16 5.8125V12C16 12.6016 16.3984 13 17 13C17.6016 13 18 12.6016 18 12V6H19V12C19 12.6016 19.3984 13 20 13C20.6016 13 21 12.6016 21 12V6H22V12C22 12.6016 22.3984 13 23 13C23.6016 13 24 12.6016 24 12V6H25V12C25 12.6016 25.3984 13 26 13C26.6016 13 27 12.6016 27 12V6H28V12C28 12.6016 28.3984 13 29 13C29.6016 13 30 12.6016 30 12V6H31V12C31 12.6016 31.3984 13 32 13C32.6016 13 33 12.6016 33 12V6H34C34.8164 6 35.5156 5.58594 36.0625 5H42.5C43.8828 5 45 3.88281 45 2.5C45 1.11719 43.8828 0 42.5 0H17ZM17 2H42.5C42.7148 2 43 2.28516 43 2.5C43 2.71484 42.7148 3 42.5 3H35.0938L34.8125 3.5625C34.7109 3.76562 34.3203 4 34 4H17C16.4453 4 16 3.55469 16 3C16 2.44531 16.4453 2 17 2ZM3 8C2.31641 8 1.78516 8.40234 1.4375 8.84375C1.08984 9.28516 0.832031 9.82031 0.625 10.4375C0.214844 11.668 0 13.2578 0 15C0 16.7422 0.214844 18.332 0.625 19.5625C0.832031 20.1797 1.08984 20.7148 1.4375 21.1562C1.78516 21.5977 2.31641 22 3 22H4V40H46V22H47C47.6836 22 48.2148 21.5977 48.5625 21.1562C48.9102 20.7148 49.168 20.1797 49.375 19.5625C49.7852 18.332 50 16.7422 50 15C50 13.2578 49.7852 11.668 49.375 10.4375C49.168 9.82031 48.9102 9.28516 48.5625 8.84375C48.2148 8.40234 47.6836 8 47 8H35V10H46.9062C46.9062 10.0039 46.9336 10.0117 47 10.0938C47.1289 10.2617 47.3125 10.6211 47.4688 11.0938C47.7852 12.0391 48 13.4414 48 15C48 16.5586 47.7852 17.9609 47.4688 18.9062C47.3125 19.3789 47.1289 19.7383 47 19.9062C46.9336 19.9883 46.9062 19.9961 46.9062 20H18.1875C18.0625 19.9766 17.9375 19.9766 17.8125 20H11.1875C11.0547 19.9727 10.9141 19.9727 10.7812 20H5.1875C5.05469 19.9727 4.91406 19.9727 4.78125 20H3.09375C3.09375 19.9961 3.06641 19.9883 3 19.9062C2.87109 19.7383 2.6875 19.3789 2.53125 18.9062C2.21484 17.9609 2 16.5586 2 15C2 13.4414 2.21484 12.0391 2.53125 11.0938C2.6875 10.6211 2.87109 10.2617 3 10.0938C3.06641 10.0117 3.09375 10.0039 3.09375 10H14V8H3ZM6 22H10V33C10 33.5508 10.4492 34 11 34H39C39.5508 34 40 33.5508 40 33V22H44V38H6V22ZM12 22H17.5625L24.2812 28.7188C24.4688 28.9141 24.7305 29.0234 25 29.0234C25.2695 29.0234 25.5312 28.9141 25.7188 28.7188L32.4375 22H38V32H12V22ZM20.4375 22H29.5625L25 26.5625L20.4375 22ZM4 41V43C4 43.6016 4.39844 44 5 44C5.60156 44 6 43.6016 6 43V41H4ZM8 41V43C8 43.6016 8.39844 44 9 44C9.60156 44 10 43.6016 10 43V41H8ZM12 41V43C12 43.6016 12.3984 44 13 44C13.6016 44 14 43.6016 14 43V41H12ZM16 41V43C16 43.6016 16.3984 44 17 44C17.6016 44 18 43.6016 18 43V41H16ZM20 41V43C20 43.6016 20.3984 44 21 44C21.6016 44 22 43.6016 22 43V41H20ZM24 41V43C24 43.6016 24.3984 44 25 44C25.6016 44 26 43.6016 26 43V41H24ZM28 41V43C28 43.6016 28.3984 44 29 44C29.6016 44 30 43.6016 30 43V41H28ZM32 41V43C32 43.6016 32.3984 44 33 44C33.6016 44 34 43.6016 34 43V41H32ZM36 41V43C36 43.6016 36.3984 44 37 44C37.6016 44 38 43.6016 38 43V41H36ZM40 41V43C40 43.6016 40.3984 44 41 44C41.6016 44 42 43.6016 42 43V41H40ZM44 41V43C44 43.6016 44.3984 44 45 44C45.6016 44 46 43.6016 46 43V41H44Z" fill="black"/>
</svg>
