<svg width="21" height="21" viewBox="0 0 21 21" fill="none" xmlns="http://www.w3.org/2000/svg">
<circle cx="10.5" cy="10.5" r="10.5" fill="#E3D9CE"/>
<path d="M13.29 7.95C13.29 8.41 13.22 8.85 13.08 9.27C12.95 9.69 12.745 10.12 12.465 10.56C12.185 10.99 11.835 11.445 11.415 11.925C11.005 12.395 10.515 12.91 9.945 13.47V13.5H13.47V15H7.65L7.515 13.845C8.325 12.965 8.98 12.235 9.48 11.655C9.98 11.075 10.365 10.585 10.635 10.185C10.915 9.775 11.105 9.42 11.205 9.12C11.305 8.81 11.355 8.49 11.355 8.16C11.355 7.68 11.235 7.31 10.995 7.05C10.765 6.78 10.415 6.645 9.945 6.645C9.695 6.645 9.465 6.68 9.255 6.75C9.055 6.81 8.87 6.885 8.7 6.975C8.54 7.065 8.4 7.165 8.28 7.275C8.16 7.375 8.065 7.465 7.995 7.545L7.335 6.27C7.435 6.17 7.565 6.05 7.725 5.91C7.895 5.77 8.1 5.635 8.34 5.505C8.58 5.375 8.855 5.27 9.165 5.19C9.485 5.1 9.85 5.055 10.26 5.055C11.19 5.055 11.925 5.305 12.465 5.805C13.015 6.305 13.29 7.02 13.29 7.95Z" fill="#0B0C0C"/>
</svg>
