<svg width="55" height="61" viewBox="0 0 55 61" fill="none" xmlns="http://www.w3.org/2000/svg">
<path d="M26.662 0.512695V3.0252H24.1495V4.7002H26.662V10.3271C23.6319 15.2852 20.6023 20.243 17.5722 25.201C17.4947 25.3279 17.4523 25.4733 17.4496 25.622C17.4468 25.7708 17.4838 25.9176 17.5565 26.0473C17.6293 26.1771 17.7354 26.2851 17.8638 26.3603C17.9921 26.4355 18.1382 26.4752 18.287 26.4752V33.1703C18.1682 33.1718 18.0511 33.1986 17.9435 33.2488C12.3599 35.7613 6.77709 38.2738 1.19351 40.7863C1.0926 40.831 1.00153 40.8953 0.925529 40.9753C0.849526 41.0553 0.790091 41.1496 0.750641 41.2527C0.711192 41.3558 0.692504 41.4656 0.695654 41.5759C0.698803 41.6863 0.723728 41.7949 0.768994 41.8956C0.81426 41.9962 0.878976 42.0869 0.959421 42.1625C1.03987 42.2381 1.13445 42.297 1.23775 42.3359C1.34104 42.3748 1.451 42.3929 1.56131 42.3891C1.67162 42.3854 1.7801 42.3599 1.88052 42.3141C2.32432 42.1144 2.76823 41.9151 3.21201 41.7154V59.9752C3.21204 60.1973 3.30028 60.4103 3.45734 60.5674C3.61439 60.7244 3.8274 60.8127 4.04952 60.8127H19.1245H36.712H50.9495C51.1716 60.8127 51.3846 60.7244 51.5417 60.5674C51.6987 60.4103 51.787 60.1973 51.787 59.9752V41.7154C52.2308 41.9151 52.6747 42.1144 53.1185 42.3141C53.2189 42.3599 53.3274 42.3854 53.4377 42.3892C53.548 42.3929 53.658 42.3748 53.7613 42.3359C53.8646 42.297 53.9592 42.2381 54.0396 42.1625C54.1201 42.087 54.1848 41.9962 54.23 41.8956C54.2753 41.7949 54.3002 41.6863 54.3034 41.576C54.3065 41.4656 54.2878 41.3558 54.2484 41.2527C54.2089 41.1496 54.1495 41.0553 54.0735 40.9753C53.9975 40.8952 53.9064 40.831 53.8055 40.7863C48.2219 38.2738 42.6392 35.7613 37.0555 33.2488C36.9539 33.2012 36.8438 33.1745 36.7316 33.1703C36.7251 33.1702 36.7186 33.1702 36.712 33.1703V26.4752C36.8608 26.4752 37.0069 26.4355 37.1353 26.3603C37.2637 26.2851 37.3697 26.1771 37.4425 26.0473C37.5153 25.9176 37.5522 25.7708 37.5494 25.622C37.5467 25.4733 37.5044 25.3279 37.4268 25.201C34.3967 20.243 31.3672 15.2852 28.337 10.3271V4.7002H30.8495V3.0252H28.337V0.512695H26.662ZM27.4995 12.169C29.4805 15.4104 31.4613 18.652 33.4422 21.8935C31.6161 20.6758 29.7898 19.4581 27.9641 18.2409L27.4995 17.9317L27.035 18.2409C25.2097 19.4583 23.3841 20.6751 21.5585 21.8918C23.539 18.651 25.5189 15.4098 27.4995 12.169ZM27.4995 19.9437C30.012 21.6186 32.5248 23.2932 35.037 24.9687V35.6877C35.0354 35.7987 35.056 35.9089 35.0973 36.0118C35.1387 36.1148 35.2002 36.2086 35.2781 36.2876C35.356 36.3666 35.4489 36.4294 35.5513 36.4722C35.6536 36.5151 35.7635 36.5371 35.8745 36.5371C35.9855 36.5371 36.0954 36.5151 36.1978 36.4722C36.3002 36.4294 36.393 36.3666 36.4709 36.2876C36.5489 36.2086 36.6103 36.1148 36.6517 36.0118C36.6931 35.9089 36.7136 35.7987 36.712 35.6877V34.932C41.1788 36.9419 45.6454 38.9514 50.112 40.9613V59.1377H36.712H36.6351L36.6777 58.9005L36.1657 58.3525L35.8745 58.3002L35.2039 58.6372L35.1139 59.1377H32.5245V41.8185C32.5245 41.6983 32.4986 41.5797 32.4486 41.4704C32.3987 41.3612 32.3258 41.264 32.235 41.1854C30.8391 39.9797 29.4439 38.7734 28.0475 37.5672C27.8979 37.4376 27.7072 37.3651 27.5093 37.3627C27.3047 37.3604 27.1062 37.4331 26.9515 37.5672C25.5552 38.7734 24.1599 39.9797 22.764 41.1854C22.6732 41.264 22.6004 41.3612 22.5504 41.4704C22.5004 41.5797 22.4746 41.6983 22.4745 41.8185V59.1377H19.8851L19.9277 58.9005L19.4157 58.3525L19.1245 58.3002L18.4539 58.6372L18.3639 59.1377H4.88701V40.9613C9.35364 38.9514 13.8203 36.9419 18.287 34.932V35.6877C18.2854 35.7987 18.306 35.9089 18.3473 36.0118C18.3887 36.1148 18.4502 36.2086 18.5281 36.2876C18.606 36.3666 18.6989 36.4294 18.8013 36.4722C18.9036 36.5151 19.0135 36.5371 19.1245 36.5371C19.2355 36.5371 19.3454 36.5151 19.4478 36.4722C19.5502 36.4294 19.643 36.3666 19.721 36.2876C19.7989 36.2086 19.8603 36.1148 19.9017 36.0118C19.9431 35.9089 19.9636 35.7987 19.962 35.6877V24.9703C22.4744 23.2954 24.987 21.6193 27.4995 19.9437ZM27.4995 25.6377C26.1735 25.6377 25.0724 26.1651 24.3605 26.9659C23.6487 27.7667 23.312 28.8016 23.312 29.8252C23.312 30.8488 23.6487 31.8837 24.3605 32.6845C25.0724 33.4853 26.1735 34.0127 27.4995 34.0127C28.8256 34.0127 29.9267 33.4853 30.6385 32.6845C31.3503 31.8837 31.687 30.8488 31.687 29.8252C31.687 28.8016 31.3503 27.7667 30.6385 26.9659C29.9267 26.1651 28.8256 25.6377 27.4995 25.6377ZM27.4995 27.3127C28.4068 27.3127 28.9807 27.6228 29.3855 28.0782C29.7904 28.5337 30.012 29.1738 30.012 29.8252C30.012 30.4766 29.7904 31.1167 29.3855 31.5722C28.9807 32.0276 28.4068 32.3377 27.4995 32.3377C26.5922 32.3377 26.0183 32.0276 25.6135 31.5722C25.2087 31.1167 24.987 30.4766 24.987 29.8252C24.987 29.1738 25.2087 28.5337 25.6135 28.0782C26.0183 27.6228 26.5922 27.3127 27.4995 27.3127ZM19.1245 38.2002L18.4539 38.5372L18.3214 39.2749L18.8334 39.8228L19.1245 39.8752L19.7952 39.5382L19.9277 38.8005L19.4157 38.2525L19.1245 38.2002ZM35.8745 38.2002L35.2039 38.5372L35.0714 39.2749L35.5834 39.8228L35.8745 39.8752L36.5452 39.5382L36.6777 38.8005L36.1657 38.2525L35.8745 38.2002ZM27.4995 39.3076C28.616 40.2723 29.7326 41.2379 30.8495 42.2029V59.1377H24.1495V42.2029C25.2664 41.2379 26.383 40.2723 27.4995 39.3076ZM19.1245 41.5502L18.4539 41.8872L18.3214 42.6249L18.8334 43.1729L19.1245 43.2252L19.7952 42.8882L19.9277 42.1505L19.4157 41.6025L19.1245 41.5502ZM35.8745 41.5502L35.2039 41.8872L35.0714 42.6249L35.5834 43.1729L35.8745 43.2252L36.5452 42.8882L36.6777 42.1505L36.1657 41.6025L35.8745 41.5502ZM14.0995 43.2252C13.1741 43.2252 12.4245 43.9748 12.4245 44.9002V50.7627H15.7745V44.9002C15.7745 43.9748 15.025 43.2252 14.0995 43.2252ZM40.8995 43.2252C39.9741 43.2252 39.2245 43.9748 39.2245 44.9002V50.7627H42.5745V44.9002C42.5745 43.9748 41.825 43.2252 40.8995 43.2252ZM8.65577 44.9002C7.96232 44.9002 7.39952 45.463 7.39952 46.1564V50.7627H9.91202V46.1564C9.91202 45.463 9.34922 44.9002 8.65577 44.9002ZM19.1245 44.9002L18.4539 45.2372L18.3214 45.9749L18.8334 46.5229L19.1245 46.5752L19.7952 46.2382L19.9277 45.5005L19.4157 44.9525L19.1245 44.9002ZM35.8745 44.9002L35.2039 45.2372L35.0714 45.9749L35.5834 46.5229L35.8745 46.5752L36.5452 46.2382L36.6777 45.5005L36.1657 44.9525L35.8745 44.9002ZM46.3433 44.9002C45.6498 44.9002 45.087 45.463 45.087 46.1564V50.7627H47.5995V46.1564C47.5995 45.463 47.0367 44.9002 46.3433 44.9002ZM19.1245 48.2502L18.4539 48.5872L18.3214 49.3249L18.8334 49.8728L19.1245 49.9252L19.7952 49.5882L19.9277 48.8505L19.4157 48.3025L19.1245 48.2502ZM35.8745 48.2502L35.2039 48.5872L35.0714 49.3249L35.5834 49.8728L35.8745 49.9252L36.5452 49.5882L36.6777 48.8505L36.1657 48.3025L35.8745 48.2502ZM19.1245 51.6002L18.4539 51.9372L18.3214 52.6749L18.8334 53.2229L19.1245 53.2752L19.7952 52.9382L19.9277 52.2005L19.4157 51.6525L19.1245 51.6002ZM35.8745 51.6002L35.2039 51.9372L35.0714 52.6749L35.5834 53.2229L35.8745 53.2752L36.5452 52.9382L36.6777 52.2005L36.1657 51.6525L35.8745 51.6002ZM19.1245 54.9502L18.4539 55.2872L18.3214 56.0249L18.8334 56.5728L19.1245 56.6252L19.7952 56.2882L19.9277 55.5505L19.4157 55.0025L19.1245 54.9502ZM35.8745 54.9502L35.2039 55.2872L35.0714 56.0249L35.5834 56.5728L35.8745 56.6252L36.5452 56.2882L36.6777 55.5505L36.1657 55.0025L35.8745 54.9502Z" fill="black"/>
</svg>
