<svg width="35" height="38" viewBox="0 0 35 38" fill="none" xmlns="http://www.w3.org/2000/svg">
    <path d="M25.141.5c-.274.011-.55.044-.824.11h-.022L3.41 6.674C1.608 7.18.4 8.872.4 10.75v22.028c0 2.35 1.857 4.383 4.219 4.383H29.93c2.351 0 4.219-2.021 4.219-4.383V13.42c0-2.373-1.857-4.395-4.219-4.395H5.41l19.588-5.69h.011c.286-.077.363-.022.473.076.099.1.23.319.23.67v2.11h2.813V4.08c0-1.054-.396-2.065-1.176-2.757C26.78.808 25.976.5 25.141.5ZM4.62 11.838H29.93c.747 0 1.406.648 1.406 1.582v19.358c0 .923-.659 1.57-1.406 1.57H4.62c-.747 0-1.407-.647-1.407-1.57V13.42c0-.934.66-1.582 1.407-1.582Zm21.093 8.415a2.818 2.818 0 0 0-2.812 2.813 2.818 2.818 0 0 0 2.812 2.812 2.818 2.818 0 0 0 2.813-2.812 2.818 2.818 0 0 0-2.813-2.813Z"
          fill="#0B0C0C"/>
</svg>