<svg width="35" height="41" viewBox="0 0 35 41" fill="none" xmlns="http://www.w3.org/2000/svg">
    <path d="M17.275.7c-4.314 0-10.448 1.463-13.7 2.29A4.23 4.23 0 0 0 .4 7.079v9.09c0 6.96 4.128 12.858 8.124 17.019 3.996 4.16 8.004 6.674 8.004 6.674l.758.472.747-.483s4-2.57 7.993-6.757c3.992-4.187 8.124-10.072 8.124-16.924V7.078a4.233 4.233 0 0 0-3.17-4.087h-.005C27.723 2.163 21.589.7 17.275.7Zm0 2.813c3.639 0 9.824 1.393 13.002 2.202.634.163 1.06.711 1.06 1.363v9.09c0 5.698-3.602 11.06-7.344 14.986-3.365 3.53-6.081 5.269-6.723 5.696-.642-.417-3.351-2.107-6.713-5.608-3.739-3.893-7.345-9.248-7.345-15.073V7.078c0-.658.42-1.201 1.055-1.363 3.178-.809 9.368-2.202 13.008-2.202ZM27.531 9.9 15.517 21.915 9.13 15.526 7.14 17.515l8.377 8.377L29.52 11.89 27.531 9.9Z"
          fill="#0B0C0C"/>
</svg>