<svg width="60" height="60" viewBox="0 0 60 60" fill="none" xmlns="http://www.w3.org/2000/svg">
<path d="M29.9374 0.365255C29.522 0.378522 29.121 0.520887 28.7902 0.772561C28.4595 1.02423 28.2153 1.37271 28.0917 1.76955L27.0839 5.00002H24.3007C23.8713 4.99962 23.4532 5.13743 23.1082 5.39307C22.7631 5.64871 22.5096 6.00861 22.3849 6.41952C22.2603 6.83044 22.2712 7.27056 22.4161 7.67479C22.561 8.07901 22.8321 8.42588 23.1894 8.66408H23.1933L25.7538 10.3711L24.7226 12.7774C24.54 13.1892 24.5043 13.6512 24.6212 14.0863C24.7381 14.5213 25.0007 14.9031 25.3652 15.168C25.7232 15.4414 26.1642 15.5838 26.6145 15.5713C27.0649 15.5589 27.4973 15.3924 27.8398 15.0996L29.9999 13.3008L32.1601 15.0996C32.5053 15.3864 32.9369 15.5488 33.3856 15.5606C33.8342 15.5723 34.2738 15.4329 34.6336 15.1646C34.9934 14.8963 35.2525 14.5149 35.3693 14.0815C35.486 13.6481 35.4536 13.1881 35.2773 12.7754L34.246 10.3692L36.8066 8.66213C37.1627 8.42379 37.4328 8.07737 37.5772 7.67391C37.7216 7.27045 37.7326 6.83128 37.6086 6.4211C37.4845 6.01093 37.232 5.65144 36.8883 5.39559C36.5445 5.13975 36.1277 5.00108 35.6991 5.00002H32.9159L31.9101 1.76955C31.78 1.35199 31.5167 0.988572 31.1604 0.734941C30.8041 0.48131 30.3745 0.351452 29.9374 0.365255ZM29.9999 2.3633L31.0058 5.59377C31.1311 6.00214 31.3845 6.35935 31.7284 6.61259C32.0724 6.86584 32.4888 7.00167 32.9159 7.00002H35.6991L33.1405 8.70705C32.752 8.96626 32.4664 9.35328 32.3334 9.801C32.2003 10.2487 32.2281 10.7289 32.412 11.1582L33.4433 13.5645L31.2831 11.7656C30.9237 11.4662 30.4707 11.3022 30.0028 11.3022C29.535 11.3022 29.082 11.4662 28.7226 11.7656L26.5624 13.5645L27.5956 11.1582C27.7793 10.7287 27.8069 10.2483 27.6734 9.80061C27.54 9.35287 27.254 8.96598 26.8652 8.70705L24.3007 7.00002H27.0839C27.5103 7.0019 27.926 6.86685 28.2699 6.61475C28.6137 6.36265 28.8676 6.00682 28.9941 5.59963L29.9999 2.3633ZM7.93742 4.36525C7.52199 4.37852 7.12102 4.52089 6.79024 4.77256C6.45946 5.02423 6.2153 5.37271 6.09171 5.76955L5.0839 9.00002H2.3007C1.8713 8.99962 1.45317 9.13743 1.10815 9.39307C0.763136 9.64871 0.509559 10.0086 0.384925 10.4195C0.260292 10.8304 0.27122 11.2706 0.416094 11.6748C0.560968 12.079 0.832094 12.4259 1.18937 12.6641L3.74992 14.3711L2.72257 16.7774C2.54004 17.1892 2.50425 17.6512 2.62119 18.0863C2.73813 18.5213 3.00072 18.9031 3.36515 19.168C3.72321 19.4414 4.1642 19.5838 4.61454 19.5713C5.06489 19.5589 5.49735 19.3924 5.83976 19.0996L7.99992 17.3008L10.1601 19.0996C10.5053 19.3864 10.9369 19.5488 11.3856 19.5606C11.8342 19.5723 12.2738 19.4329 12.6336 19.1646C12.9934 18.8963 13.2525 18.5149 13.3693 18.0815C13.486 17.6481 13.4536 17.1881 13.2773 16.7754L12.246 14.3692L14.8066 12.6621C15.1627 12.4238 15.4328 12.0774 15.5772 11.6739C15.7216 11.2705 15.7326 10.8313 15.6086 10.4211C15.4845 10.0109 15.232 9.65144 14.8883 9.39559C14.5445 9.13975 14.1277 9.00108 13.6991 9.00002H10.9159L9.91007 5.76955C9.78003 5.35199 9.5167 4.98857 9.16042 4.73494C8.80414 4.48131 8.37454 4.35145 7.93742 4.36525ZM51.9374 4.36525C51.522 4.37852 51.121 4.52089 50.7902 4.77256C50.4595 5.02423 50.2153 5.37271 50.0917 5.76955L49.0839 9.00002H46.3007C45.8713 8.99962 45.4532 9.13743 45.1082 9.39307C44.7631 9.64871 44.5096 10.0086 44.3849 10.4195C44.2603 10.8304 44.2712 11.2706 44.4161 11.6748C44.561 12.079 44.8321 12.4259 45.1894 12.6641L47.7499 14.3711L46.7187 16.7774C46.5361 17.1892 46.5003 17.6512 46.6173 18.0863C46.7342 18.5213 46.9968 18.9031 47.3612 19.168C47.7196 19.4424 48.1614 19.5854 48.6126 19.5729C49.0638 19.5605 49.4971 19.3934 49.8398 19.0996L51.9999 17.3008L54.1601 19.0996C54.5053 19.3864 54.9369 19.5488 55.3856 19.5606C55.8342 19.5723 56.2738 19.4329 56.6336 19.1646C56.9934 18.8963 57.2525 18.5149 57.3693 18.0815C57.486 17.6481 57.4536 17.1881 57.2773 16.7754L56.246 14.3692L58.8066 12.6621C59.1649 12.4254 59.4369 12.0791 59.5819 11.6749C59.727 11.2707 59.7373 10.8305 59.6112 10.4199C59.4886 10.0085 59.236 9.6479 58.8914 9.39195C58.5467 9.13601 58.1284 8.99851 57.6991 9.00002H54.9159L53.9101 5.76955C53.78 5.35199 53.5167 4.98857 53.1604 4.73494C52.8041 4.48131 52.3745 4.35145 51.9374 4.36525ZM7.99992 6.3633L9.00578 9.59377C9.13108 10.0021 9.38445 10.3593 9.72844 10.6126C10.0724 10.8658 10.4888 11.0017 10.9159 11H13.6991L11.1405 12.7071C10.752 12.9663 10.4664 13.3533 10.3334 13.801C10.2003 14.2487 10.2281 14.7289 10.412 15.1582L11.4433 17.5645L9.28312 15.7656C8.92371 15.4662 8.47068 15.3022 8.00285 15.3022C7.53502 15.3022 7.08199 15.4662 6.72257 15.7656L4.56046 17.5625L5.59171 15.1563C5.77561 14.7269 5.80344 14.2468 5.67037 13.799C5.5373 13.3513 5.25174 12.9643 4.8632 12.7051L2.3007 11H5.0839C5.51028 11.0019 5.92599 10.8668 6.26986 10.6147C6.61373 10.3626 6.86758 10.0068 6.99406 9.59963L7.99992 6.3633ZM51.9999 6.3633L53.0058 9.59377C53.1311 10.0021 53.3845 10.3593 53.7284 10.6126C54.0724 10.8658 54.4888 11.0017 54.9159 11H57.6991L55.1366 12.7071C54.7481 12.9663 54.4625 13.3533 54.3295 13.801C54.1964 14.2487 54.2242 14.7289 54.4081 15.1582L55.4394 17.5645L53.2812 15.7656C52.9218 15.4662 52.4687 15.3022 52.0009 15.3022C51.5331 15.3022 51.08 15.4662 50.7206 15.7656L48.5605 17.5645L49.5917 15.1582C49.7756 14.7289 49.8034 14.2487 49.6704 13.801C49.5373 13.3533 49.2517 12.9663 48.8632 12.7071L46.3007 11H49.08C49.5064 11.0019 49.9221 10.8668 50.266 10.6147C50.6098 10.3626 50.8637 10.0068 50.9902 9.59963L51.9999 6.3633ZM17.9999 17C17.7347 17 17.4803 17.1054 17.2928 17.2929C17.1053 17.4804 16.9999 17.7348 16.9999 18V20.1817C16.5483 20.0159 16.0632 19.9621 15.5862 20.025C15.1092 20.0878 14.6546 20.2654 14.2613 20.5425C13.868 20.8196 13.5478 21.188 13.3281 21.616C13.1084 22.044 12.9958 22.5189 12.9999 23V23.1817C12.5483 23.0159 12.0632 22.9621 11.5862 23.025C11.1092 23.0878 10.6546 23.2654 10.2613 23.5425C9.86798 23.8196 9.54777 24.188 9.32808 24.616C9.10839 25.044 8.99579 25.5189 8.99992 26V32.1817C8.54827 32.0159 8.06316 31.9621 7.58618 32.025C7.10919 32.0878 6.65456 32.2654 6.26127 32.5425C5.86799 32.8196 5.54777 33.188 5.32808 33.616C5.10839 34.044 4.99579 34.5189 4.99992 35V47C4.99996 47.2652 5.10534 47.5195 5.29289 47.7071L8.99992 51.4141V52C8.7347 52 8.48035 52.1054 8.29281 52.2929C8.10528 52.4804 7.99992 52.7348 7.99992 53V59C7.99992 59.2652 8.10528 59.5196 8.29281 59.7071C8.48035 59.8947 8.7347 60 8.99992 60H24.9999C25.2651 60 25.5195 59.8947 25.707 59.7071C25.8946 59.5196 25.9999 59.2652 25.9999 59V53C25.9999 52.7348 25.8946 52.4804 25.707 52.2929C25.5195 52.1054 25.2651 52 24.9999 52H23.9999V51.2774L26.8573 46.5156C26.9508 46.3599 27.0001 46.1817 26.9999 46V43.1992L29.4452 44.8301C29.6095 44.9396 29.8025 44.998 29.9999 44.998C30.1973 44.998 30.3903 44.9396 30.5546 44.8301L32.9999 43.1992V46C32.9997 46.1817 33.049 46.3599 33.1425 46.5156L35.9999 51.2774V52H34.9999C34.7347 52 34.4804 52.1054 34.2928 52.2929C34.1053 52.4804 33.9999 52.7348 33.9999 53V59C33.9999 59.2652 34.1053 59.5196 34.2928 59.7071C34.4804 59.8947 34.7347 60 34.9999 60H50.9999C51.2651 60 51.5195 59.8947 51.707 59.7071C51.8946 59.5196 51.9999 59.2652 51.9999 59V53C51.9999 52.7348 51.8946 52.4804 51.707 52.2929C51.5195 52.1054 51.2651 52 50.9999 52V51.4141L54.707 47.7071C54.8945 47.5195 54.9999 47.2652 54.9999 47V35C54.9999 34.2044 54.6838 33.4413 54.1212 32.8787C53.5586 32.3161 52.7956 32 51.9999 32C51.6587 32.0035 51.3206 32.0649 50.9999 32.1817V26C51.0033 25.5192 50.8903 25.0446 50.6704 24.617C50.4505 24.1894 50.1303 23.8213 49.7373 23.5444C49.3442 23.2674 48.8899 23.0897 48.4132 23.0266C47.9365 22.9634 47.4516 23.0166 46.9999 23.1817V23C47.0033 22.5192 46.8903 22.0446 46.6704 21.617C46.4505 21.1894 46.1303 20.8213 45.7373 20.5444C45.3442 20.2674 44.8899 20.0897 44.4132 20.0266C43.9365 19.9634 43.4516 20.0166 42.9999 20.1817V18C42.9999 17.7348 42.8946 17.4804 42.707 17.2929C42.5195 17.1054 42.2651 17 41.9999 17H17.9999ZM18.9999 19H40.9999V30.6485C41.0014 32.1304 40.6362 33.5896 39.9369 34.8962C39.2376 36.2027 38.226 37.316 36.9921 38.1367L29.9999 42.8008L23.0077 38.1387C21.7736 37.3178 20.7618 36.2042 20.0625 34.8973C19.3632 33.5904 18.9981 32.1307 18.9999 30.6485V19ZM21.9999 21C21.7347 21 21.4803 21.1054 21.2928 21.2929C21.1053 21.4804 20.9999 21.7348 20.9999 22V30.6485C20.999 31.801 21.2831 32.9359 21.827 33.9521C22.3708 34.9683 23.1576 35.8342 24.1171 36.4727L29.4452 40.0235C29.6095 40.133 29.8025 40.1914 29.9999 40.1914C30.1973 40.1914 30.3903 40.133 30.5546 40.0235L35.8827 36.4727C36.8423 35.8342 37.629 34.9683 38.1729 33.9521C38.7167 32.9359 39.0009 31.801 38.9999 30.6485V22C38.9999 21.7348 38.8946 21.4804 38.707 21.2929C38.5195 21.1054 38.2651 21 37.9999 21H21.9999ZM15.9999 22C16.1334 21.9995 16.2656 22.0265 16.3882 22.0793C16.5109 22.132 16.6213 22.2094 16.7128 22.3067C16.8049 22.3969 16.8778 22.5049 16.9272 22.624C16.9765 22.7432 17.0012 22.8711 16.9999 23V37H18.9999V36.9766C19.7838 38.0892 20.7672 39.0468 21.9003 39.8008L24.9999 41.8672V45.7227L22.1425 50.4844C22.049 50.6401 21.9997 50.8184 21.9999 51V52H10.9999V51C10.9999 50.7348 10.8945 50.4805 10.7069 50.293L6.99992 46.586V35C6.99992 34.7348 7.10528 34.4804 7.29281 34.2929C7.48035 34.1054 7.7347 34 7.99992 34C8.13342 33.9995 8.26559 34.0265 8.38822 34.0793C8.51086 34.132 8.62134 34.2094 8.71281 34.3067C8.80491 34.3969 8.87782 34.5049 8.92716 34.624C8.9765 34.7432 9.00125 34.8711 8.99992 35V41H10.9999V26C10.9999 25.7348 11.1053 25.4804 11.2928 25.2929C11.4803 25.1054 11.7347 25 11.9999 25C12.1334 24.9995 12.2656 25.0265 12.3882 25.0793C12.5109 25.132 12.6213 25.2094 12.7128 25.3067C12.8049 25.3969 12.8778 25.5049 12.9272 25.624C12.9765 25.7432 13.0012 25.8711 12.9999 26V37H14.9999V23C14.9999 22.7348 15.1053 22.4804 15.2928 22.2929C15.4803 22.1054 15.7347 22 15.9999 22ZM43.9941 22C43.996 22 43.998 22 43.9999 22C44.2651 22 44.5195 22.1054 44.707 22.2929C44.8946 22.4804 44.9999 22.7348 44.9999 23V37H46.9999V26C46.9994 25.8665 47.0264 25.7344 47.0792 25.6117C47.1319 25.4891 47.2093 25.3786 47.3066 25.2871C47.3968 25.195 47.5048 25.1221 47.6239 25.0728C47.7431 25.0234 47.871 24.9987 47.9999 25C48.2651 25 48.5195 25.1054 48.707 25.2929C48.8946 25.4804 48.9999 25.7348 48.9999 26V41H50.9999V35C50.9994 34.8665 51.0264 34.7343 51.0792 34.6117C51.1319 34.4891 51.2093 34.3786 51.3066 34.2871C51.3968 34.195 51.5048 34.1221 51.6239 34.0728C51.7431 34.0234 51.871 33.9987 51.9999 34C52.2651 34 52.5195 34.1054 52.707 34.2929C52.8946 34.4804 52.9999 34.7348 52.9999 35V46.586L49.2929 50.293C49.1053 50.4805 49 50.7348 48.9999 51V52H37.9999V51C38.0001 50.8184 37.9508 50.6401 37.8573 50.4844L34.9999 45.7227V41.8672L38.0995 39.8008C39.2326 39.0468 40.2161 38.0892 40.9999 36.9766V37H42.9999V23C42.9994 22.8665 43.0264 22.7344 43.0792 22.6117C43.1319 22.4891 43.2093 22.3786 43.3066 22.2871C43.3961 22.1957 43.5031 22.1232 43.6212 22.0739C43.7393 22.0246 43.8661 21.9995 43.9941 22ZM22.9999 23H36.9999V30.6485C37.0004 31.4717 36.7974 32.2823 36.409 33.0081C36.0205 33.7339 35.4586 34.3524 34.7734 34.8086L29.9999 37.9903L25.2265 34.8086C24.5416 34.352 23.98 33.7334 23.5916 33.0077C23.2032 32.282 22.9999 31.4716 22.9999 30.6485V23ZM33.2929 26.293L28.9999 30.586L26.7069 28.293L25.2929 29.7071L28.2929 32.7071C28.4804 32.8946 28.7347 33 28.9999 33C29.2651 33 29.5194 32.8946 29.7069 32.7071L34.707 27.7071L33.2929 26.293ZM9.99992 54H23.9999V58H9.99992V54ZM35.9999 54H49.9999V58H35.9999V54Z" fill="black"/>
</svg>
