<svg width="60" height="61" viewBox="0 0 60 61" fill="none" xmlns="http://www.w3.org/2000/svg">
<path d="M17.9375 0.995994C16.795 1.01015 15.6918 1.41519 14.8116 2.14369C13.9313 2.87219 13.3271 3.88019 13.0996 4.9999H11C9.67392 4.9999 8.40215 5.52668 7.46447 6.46437C6.52678 7.40205 6 8.67382 6 9.9999C6 11.326 6.52678 12.5978 7.46447 13.5354C8.40215 14.4731 9.67392 14.9999 11 14.9999V12.9999C10.2044 12.9999 9.44129 12.6838 8.87868 12.1212C8.31607 11.5586 8 10.7956 8 9.9999C8 9.20425 8.31607 8.44119 8.87868 7.87858C9.44129 7.31597 10.2044 6.9999 11 6.9999H14C14.2652 6.9999 14.5196 6.89454 14.7071 6.70701C14.8946 6.51947 15 6.26512 15 5.9999C15 5.20425 15.3161 4.44119 15.8787 3.87858C16.4413 3.31597 17.2044 2.9999 18 2.9999C18.7956 2.9999 19.5587 3.31597 20.1213 3.87858C20.6839 4.44119 21 5.20425 21 5.9999C21 6.26512 21.1054 6.51947 21.2929 6.70701C21.4804 6.89454 21.7348 6.9999 22 6.9999C22.7956 6.9999 23.5587 7.31597 24.1213 7.87858C24.6839 8.44119 25 9.20425 25 9.9999C25 10.7956 24.6839 11.5586 24.1213 12.1212C23.5587 12.6838 22.7956 12.9999 22 12.9999H18V14.9999H22C23.2471 15.0008 24.4494 14.5356 25.3712 13.6956C26.2929 12.8557 26.8675 11.7016 26.9823 10.4598C27.097 9.21806 26.7435 7.97825 25.9912 6.98365C25.2389 5.98906 24.1421 5.31149 22.916 5.08389C22.7011 3.92501 22.0837 2.87931 21.1728 2.13136C20.2619 1.38341 19.116 0.981299 17.9375 0.995994ZM43.9375 2.99599C42.795 3.01015 41.6918 3.41519 40.8116 4.14369C39.9313 4.87219 39.3271 5.88019 39.0996 6.9999H37C35.6739 6.9999 34.4021 7.52668 33.4645 8.46437C32.5268 9.40205 32 10.6738 32 11.9999C32 13.326 32.5268 14.5978 33.4645 15.5354C34.4021 16.4731 35.6739 16.9999 37 16.9999H38V14.9999H37C36.2043 14.9999 35.4413 14.6838 34.8787 14.1212C34.3161 13.5586 34 12.7956 34 11.9999C34 11.2043 34.3161 10.4412 34.8787 9.87858C35.4413 9.31597 36.2043 8.9999 37 8.9999H40C40.2652 8.9999 40.5196 8.89454 40.7071 8.70701C40.8946 8.51947 41 8.26512 41 7.9999C41 7.20425 41.3161 6.44119 41.8787 5.87858C42.4413 5.31597 43.2043 4.9999 44 4.9999C44.7957 4.9999 45.5587 5.31597 46.1213 5.87858C46.6839 6.44119 47 7.20425 47 7.9999C47 8.26512 47.1054 8.51947 47.2929 8.70701C47.4804 8.89454 47.7348 8.9999 48 8.9999C48.7957 8.9999 49.5587 9.31597 50.1213 9.87858C50.6839 10.4412 51 11.2043 51 11.9999C51 12.7956 50.6839 13.5586 50.1213 14.1212C49.5587 14.6838 48.7957 14.9999 48 14.9999H45V16.9999H48C49.2471 17.0008 50.4494 16.5356 51.3712 15.6956C52.2929 14.8557 52.8675 13.7016 52.9823 12.4598C53.097 11.2181 52.7435 9.97825 51.9912 8.98365C51.2389 7.98906 50.1421 7.31149 48.916 7.08389C48.7011 5.92501 48.0837 4.87931 47.1728 4.13136C46.2619 3.38341 45.116 2.9813 43.9375 2.99599ZM16.1328 9.4999L12.1328 16.4999C12.045 16.652 11.9988 16.8246 11.9988 17.0002C11.9989 17.1758 12.0452 17.3484 12.1331 17.5004C12.221 17.6525 12.3474 17.7787 12.4996 17.8664C12.6518 17.954 12.8244 18.0001 13 17.9999H17.1328L14.168 22.4452L15.832 23.5546L19.832 17.5546C19.9324 17.404 19.9901 17.229 19.9988 17.0482C20.0075 16.8674 19.9671 16.6876 19.8817 16.528C19.7962 16.3685 19.6691 16.2351 19.5139 16.142C19.3586 16.049 19.181 15.9999 19 15.9999H14.7246L17.8672 10.4999L16.1328 9.4999ZM43.1328 11.4999L39.1328 18.4999C39.045 18.652 38.9988 18.8246 38.9988 19.0002C38.9989 19.1758 39.0452 19.3484 39.1331 19.5004C39.221 19.6525 39.3474 19.7787 39.4996 19.8664C39.6518 19.954 39.8244 20.0001 40 19.9999H44.1328L41.168 24.4452L42.832 25.5546L46.832 19.5546C46.9324 19.404 46.9901 19.229 46.9988 19.0482C47.0075 18.8674 46.9671 18.6876 46.8816 18.528C46.7962 18.3685 46.6691 18.2351 46.5139 18.142C46.3586 18.049 46.181 17.9999 46 17.9999H41.7246L44.8672 12.4999L43.1328 11.4999ZM8.19922 17.4003L5.19922 21.4003C5.08786 21.5489 5.0201 21.7256 5.00351 21.9106C4.98692 22.0956 5.02217 22.2815 5.1053 22.4476C5.18844 22.6136 5.31617 22.7533 5.4742 22.8508C5.63222 22.9484 5.81429 23 6 22.9999H8L6.19922 25.4003L7.80078 26.5995L10.8008 22.5995C10.9121 22.4509 10.9799 22.2742 10.9965 22.0892C11.0131 21.9043 10.9778 21.7183 10.8947 21.5522C10.8116 21.3862 10.6838 21.2465 10.5258 21.149C10.3678 21.0514 10.1857 20.9998 10 20.9999H8L9.80078 18.5995L8.19922 17.4003ZM52.1992 17.4003L49.1992 21.4003C49.0879 21.5489 49.0201 21.7256 49.0035 21.9106C48.9869 22.0956 49.0222 22.2815 49.1053 22.4476C49.1884 22.6136 49.3162 22.7533 49.4742 22.8508C49.6322 22.9484 49.8143 23 50 22.9999H52L50.1992 25.4003L51.8008 26.5995L54.8008 22.5995C54.9121 22.4509 54.9799 22.2742 54.9965 22.0892C55.0131 21.9043 54.9778 21.7183 54.8947 21.5522C54.8116 21.3862 54.6838 21.2465 54.5258 21.149C54.3678 21.0514 54.1857 20.9998 54 20.9999H52L53.8008 18.5995L52.1992 17.4003ZM28 20.9999C27.7348 20.9999 27.4804 21.1053 27.2929 21.2928C27.1054 21.4803 27 21.7347 27 21.9999V24.9999H11V25.037C10.8252 25.0315 10.6522 25.0728 10.4987 25.1566C10.3452 25.2404 10.2169 25.3636 10.127 25.5136L0.126953 43.5136C0.0422626 43.6657 -0.00122428 43.8374 0.000796556 44.0115C0.00281739 44.1856 0.050276 44.3562 0.138475 44.5064C0.226674 44.6565 0.352556 44.7811 0.503661 44.8676C0.654767 44.9542 0.825857 44.9998 1 44.9999H3V58.9999H0V60.9999H60V58.9999H54V43.9081C57.386 43.3501 60 40.0219 60 35.9999C60 31.5889 56.859 27.9999 53 27.9999C49.141 27.9999 46 31.5889 46 35.9999C46 40.0219 48.614 43.3501 52 43.9081V58.9999H45V44.9999H46C46.1741 44.9998 46.3452 44.9542 46.4963 44.8676C46.6474 44.7811 46.7733 44.6565 46.8615 44.5064C46.9497 44.3562 46.9972 44.1856 46.9992 44.0115C47.0012 43.8374 46.9577 43.6657 46.873 43.5136L36.873 25.5136C36.7864 25.358 36.6599 25.2283 36.5064 25.138C36.3529 25.0477 36.1781 25 36 24.9999H35V21.9999C35 21.7347 34.8946 21.4803 34.7071 21.2928C34.5196 21.1053 34.2652 20.9999 34 20.9999H28ZM29 22.9999H33V30.9999H29V22.9999ZM12.6992 26.9999H27V31.9999C27 32.2651 27.1054 32.5195 27.2929 32.707C27.4804 32.8945 27.7348 32.9999 28 32.9999H34C34.2652 32.9999 34.5196 32.8945 34.7071 32.707C34.8946 32.5195 35 32.2651 35 31.9999V26.9999H35.4102L44.3008 42.9999H21.5879L12.6992 26.9999ZM11 28.0585L19.3008 42.9999H2.69922L11 28.0585ZM53 29.9999C55.757 29.9999 58 32.6909 58 35.9999C58 38.8999 56.279 41.3208 54 41.8788V35.9999H52V41.8788C49.721 41.3208 48 38.8999 48 35.9999C48 32.6909 50.243 29.9999 53 29.9999ZM5 44.9999H17V58.9999H15V49.9999C15 49.7347 14.8946 49.4803 14.7071 49.2928C14.5196 49.1053 14.2652 48.9999 14 48.9999H8C7.73478 48.9999 7.48043 49.1053 7.29289 49.2928C7.10536 49.4803 7 49.7347 7 49.9999V58.9999H5V44.9999ZM19 44.9999H43V58.9999H19V44.9999ZM24 48.9999C23.7348 48.9999 23.4804 49.1053 23.2929 49.2928C23.1054 49.4803 23 49.7347 23 49.9999V55.9999C23 56.2651 23.1054 56.5195 23.2929 56.707C23.4804 56.8945 23.7348 56.9999 24 56.9999H38C38.2652 56.9999 38.5196 56.8945 38.7071 56.707C38.8946 56.5195 39 56.2651 39 55.9999V49.9999C39 49.7347 38.8946 49.4803 38.7071 49.2928C38.5196 49.1053 38.2652 48.9999 38 48.9999H24ZM9 50.9999H13V58.9999H9V50.9999ZM25 50.9999H37V54.9999H25V50.9999Z" fill="black"/>
</svg>
