<svg width="60" height="58" viewBox="0 0 60 58" fill="none" xmlns="http://www.w3.org/2000/svg">
<path d="M29.8673 0.363059C26.5318 0.421638 23.3271 1.67031 20.8312 3.88381C20.4813 4.19539 20.1964 4.57292 19.9926 4.99478C19.7888 5.41665 19.6703 5.87456 19.6437 6.34231C19.5961 7.06398 19.7753 7.78248 20.1563 8.39724C19.9915 8.66217 19.8405 8.93544 19.704 9.21596H16.937C15.9326 9.21614 14.9693 9.61523 14.2591 10.3255C13.5488 11.0357 13.1497 11.999 13.1496 13.0034V41.1718H11.1294C9.86964 41.1718 8.66146 41.6722 7.77066 42.563C6.87986 43.4538 6.37942 44.662 6.37942 45.9218V48.2968H5.06203C3.91204 48.4391 2.85373 48.9968 2.08631 49.865C1.3189 50.7333 0.895326 51.8521 0.895326 53.0108C0.895326 54.1696 1.3189 55.2884 2.08631 56.1566C2.85373 57.0248 3.91204 57.5826 5.06203 57.7249H54.937C56.087 57.5826 57.1454 57.0248 57.9128 56.1566C58.6802 55.2884 59.1037 54.1696 59.1037 53.0108C59.1037 51.8521 58.6802 50.7333 57.9128 49.865C57.1454 48.9968 56.087 48.4391 54.937 48.2968V48.2133H53.5826V45.8383C53.5826 44.5785 53.0821 43.3703 52.1913 42.4795C51.3005 41.5887 50.0923 41.0883 48.8326 41.0883H46.8147V13.0034C46.8146 12.005 46.4203 11.047 45.7175 10.3377C45.0148 9.62844 44.0604 9.22531 43.062 9.21596C43.0673 9.16043 43.0673 9.10451 43.062 9.04897C41.9939 6.44031 40.1626 4.2152 37.8081 2.66526C35.4536 1.11532 32.6858 0.312863 29.8673 0.363059ZM29.6957 2.74734C32.0571 2.68741 34.3806 3.34972 36.3554 4.64573C38.3303 5.94173 39.8626 7.80969 40.7473 9.9999C40.8066 10.1443 40.8368 10.2989 40.8363 10.4549C40.8358 10.611 40.8045 10.7654 40.7443 10.9094C40.6841 11.0534 40.5962 11.1841 40.4855 11.2941C40.3747 11.404 40.2435 11.4911 40.0991 11.5504C39.9547 11.6096 39.8001 11.6398 39.644 11.6393C39.488 11.6388 39.3336 11.6076 39.1896 11.5474C39.0456 11.4872 38.9149 11.3992 38.8049 11.2885C38.695 11.1778 38.6079 11.0465 38.5486 10.9021C38.0004 9.56479 37.1469 8.3743 36.0563 7.42586C34.9657 6.47743 33.6683 5.79737 32.2678 5.44009C32.09 5.39599 31.9044 5.39364 31.7255 5.43323C31.5466 5.47281 31.3793 5.55325 31.2367 5.66825C31.0941 5.78325 30.98 5.92969 30.9034 6.09612C30.8267 6.26255 30.7897 6.44445 30.7951 6.62759V10.5473C30.8107 10.7041 30.7933 10.8624 30.744 11.0121C30.6947 11.1618 30.6146 11.2995 30.5089 11.4163C30.4031 11.5331 30.274 11.6265 30.13 11.6904C29.9859 11.7543 29.8301 11.7873 29.6725 11.7873C29.5149 11.7873 29.3591 11.7543 29.215 11.6904C29.071 11.6265 28.9419 11.5331 28.8362 11.4163C28.7304 11.2995 28.6503 11.1618 28.601 11.0121C28.5517 10.8624 28.5343 10.7041 28.55 10.5473V7.6249L28.9535 7.49502C29.2071 7.37165 29.4085 7.16207 29.5217 6.90378C29.6348 6.6455 29.6524 6.35537 29.5712 6.08531C29.49 5.81526 29.3154 5.58291 29.0786 5.42984C28.8417 5.27678 28.5582 5.21299 28.2786 5.2499C26.6444 5.59529 25.1268 6.35572 23.8719 7.45791C23.7545 7.56367 23.6172 7.6451 23.4682 7.69747C23.3191 7.74985 23.1611 7.77213 23.0033 7.76302C22.8456 7.75392 22.6912 7.71362 22.5491 7.64444C22.4071 7.57527 22.2801 7.4786 22.1757 7.36004C22.0712 7.24147 21.9913 7.10337 21.9406 6.95371C21.8899 6.80406 21.8694 6.64583 21.8802 6.48819C21.8911 6.33055 21.9331 6.17663 22.0038 6.03534C22.0746 5.89404 22.1727 5.76819 22.2924 5.66506C24.339 3.85013 26.9611 2.81673 29.6957 2.74734ZM33.1469 8.25344C34.5844 9.00855 35.7107 10.2449 36.329 11.7464C36.5994 12.3958 37.056 12.9506 37.6413 13.3409C38.2266 13.7312 38.9143 13.9395 39.6178 13.9395C40.3213 13.9395 41.009 13.7312 41.5943 13.3409C42.1796 12.9506 42.6362 12.3958 42.9066 11.7464V11.5562C43.0923 11.556 43.2762 11.5923 43.4478 11.6632C43.6194 11.7341 43.7753 11.8381 43.9067 11.9692C44.0381 12.1004 44.1424 12.2562 44.2135 12.4277C44.2847 12.5992 44.3214 12.783 44.3214 12.9686V41.1718H15.5593V13.0034C15.5594 12.6348 15.7035 12.2808 15.9609 12.0169C16.2182 11.7531 16.5685 11.6002 16.937 11.591H20.3209C20.5553 11.5899 20.784 11.5195 20.9784 11.3886C21.1728 11.2578 21.3241 11.0724 21.4134 10.8557C21.5448 10.5262 21.6958 10.2047 21.8656 9.89321C22.4657 10.1096 23.1128 10.1609 23.7395 10.0418C24.3662 9.92266 24.9493 9.63745 25.4281 9.21596C25.6535 9.00648 25.8955 8.81567 26.1518 8.64541V10.4638C26.1249 10.9397 26.1954 11.4161 26.3591 11.8637C26.5227 12.3114 26.776 12.721 27.1034 13.0674C27.4308 13.4139 27.8255 13.6898 28.2632 13.8784C28.701 14.067 29.1727 14.1643 29.6493 14.1643C30.126 14.1643 30.5976 14.067 31.0354 13.8784C31.4732 13.6898 31.8678 13.4139 32.1952 13.0674C32.5227 12.721 32.7759 12.3114 32.9396 11.8637C33.1032 11.4161 33.1737 10.9397 33.1469 10.4638V8.25344ZM51.458 8.46914C51.0644 8.46914 50.6868 8.62553 50.4084 8.9039C50.1301 9.18228 49.9737 9.55983 49.9737 9.95351C49.9737 10.3472 50.1301 10.7248 50.4084 11.0031C50.6868 11.2815 51.0644 11.4379 51.458 11.4379C51.8517 11.4379 52.2293 11.2815 52.5076 11.0031C52.786 10.7248 52.9424 10.3472 52.9424 9.95351C52.9424 9.55983 52.786 9.18228 52.5076 8.9039C52.2293 8.62553 51.8517 8.46914 51.458 8.46914ZM4.3384 9.15798C4.02993 9.16702 3.73709 9.2958 3.52192 9.51702C3.30675 9.73825 3.18616 10.0346 3.18569 10.3432V10.7722C3.18569 10.9282 3.21641 11.0826 3.27608 11.2267C3.33576 11.3708 3.42323 11.5017 3.5335 11.6119C3.64377 11.7222 3.77468 11.8097 3.91875 11.8693C4.06283 11.929 4.21725 11.9597 4.37319 11.9597C4.68814 11.9597 4.99018 11.8346 5.21288 11.6119C5.43558 11.3892 5.56069 11.0872 5.56069 10.7722V10.3432C5.56045 10.1844 5.52839 10.0274 5.46641 9.88126C5.40443 9.73514 5.31379 9.60293 5.19984 9.49244C5.08589 9.38195 4.95095 9.29543 4.80299 9.23798C4.65503 9.18053 4.49705 9.15333 4.3384 9.15798ZM1.52969 10.8233C1.31599 10.8167 1.1045 10.868 0.917534 10.9717C0.730568 11.0754 0.575062 11.2277 0.467429 11.4124C0.388667 11.5479 0.337517 11.6977 0.316928 11.8531C0.29634 12.0085 0.306721 12.1664 0.347472 12.3178C0.388223 12.4691 0.458539 12.6109 0.554363 12.735C0.650187 12.859 0.769624 12.9629 0.905784 13.0405L1.26296 13.2423C1.44294 13.3485 1.64775 13.4053 1.85671 13.407C2.06579 13.4077 2.27133 13.3531 2.45256 13.2488C2.63379 13.1446 2.78428 12.9943 2.88882 12.8133C2.96769 12.6785 3.01923 12.5295 3.04047 12.3749C3.06171 12.2202 3.05224 12.0628 3.0126 11.9118C2.97296 11.7608 2.90394 11.6191 2.80947 11.4948C2.715 11.3705 2.59694 11.266 2.46206 11.1874L2.09328 10.9856C1.92195 10.8852 1.72817 10.8294 1.52969 10.8233ZM7.24453 10.8488C7.04276 10.8444 6.84321 10.8915 6.6647 10.9856L6.24953 11.1874C6.02129 11.3173 5.84253 11.5191 5.74122 11.7614C5.63991 12.0037 5.62177 12.2727 5.68963 12.5264C5.75749 12.7801 5.90753 13.0041 6.11627 13.1634C6.32501 13.3228 6.58068 13.4084 6.84328 13.407C7.05282 13.4096 7.25875 13.3524 7.43703 13.2423L7.80581 13.0405C7.941 12.9619 8.05933 12.8574 8.154 12.7329C8.24867 12.6084 8.31782 12.4664 8.35747 12.3151C8.39713 12.1638 8.4065 12.0062 8.38507 11.8513C8.36364 11.6964 8.31181 11.5472 8.23257 11.4124C8.12819 11.2433 7.98304 11.103 7.81042 11.0046C7.6378 10.9061 7.44322 10.8525 7.24453 10.8488ZM6.75979 13.9126C6.49804 13.9218 6.24668 14.0173 6.04483 14.1842C5.84298 14.3511 5.70198 14.5801 5.64376 14.8354C5.58554 15.0908 5.61338 15.3582 5.72294 15.5961C5.83251 15.834 6.01764 16.029 6.24953 16.1508L6.61831 16.3642C6.79919 16.4671 7.00394 16.5207 7.21206 16.5196C7.42623 16.528 7.6387 16.4784 7.82694 16.3759C8.01519 16.2734 8.17218 16.1219 8.28127 15.9374C8.36006 15.8025 8.41145 15.6534 8.43252 15.4987C8.4536 15.3439 8.44392 15.1865 8.40407 15.0354C8.36421 14.8844 8.29495 14.7427 8.20025 14.6185C8.10555 14.4943 7.98727 14.39 7.8522 14.3115L7.43703 14.0958C7.23489 13.968 6.99884 13.9041 6.75979 13.9126ZM1.85207 13.9242C1.64277 13.933 1.43953 13.997 1.26296 14.1098L0.905784 14.3115C0.769932 14.3892 0.65077 14.493 0.555148 14.6168C0.459525 14.7407 0.389329 14.8822 0.348593 15.0333C0.307857 15.1844 0.297385 15.3421 0.317779 15.4972C0.338173 15.6524 0.389031 15.802 0.467429 15.9374C0.545094 16.0733 0.648843 16.1924 0.772714 16.288C0.896585 16.3837 1.03813 16.4539 1.18922 16.4946C1.34031 16.5353 1.49796 16.5458 1.65311 16.5254C1.80826 16.505 1.95785 16.4542 2.09328 16.3758L2.45046 16.1624C2.68914 16.0372 2.87812 15.8345 2.98635 15.5876C3.09458 15.3408 3.11561 15.0645 3.046 14.8041C2.97638 14.5437 2.82026 14.3147 2.60328 14.1548C2.38631 13.9949 2.12139 13.9136 1.85207 13.9242ZM19.5741 14.6316C19.2592 14.6316 18.9571 14.7567 18.7344 14.9794C18.5117 15.2021 18.3866 15.5042 18.3866 15.8191V37.1941C18.3866 37.5091 18.5117 37.8111 18.7344 38.0338C18.9571 38.2565 19.2592 38.3816 19.5741 38.3816H40.425C40.7399 38.3816 41.0419 38.2565 41.2646 38.0338C41.4873 37.8111 41.6125 37.5091 41.6125 37.1941V15.8191C41.6125 15.5042 41.4873 15.2021 41.2646 14.9794C41.0419 14.7567 40.7399 14.6316 40.425 14.6316H19.5741ZM4.3384 15.3924C4.02993 15.4014 3.73709 15.5302 3.52192 15.7514C3.30675 15.9726 3.18616 16.2689 3.18569 16.5775V16.995C3.18569 17.31 3.3108 17.612 3.5335 17.8347C3.7562 18.0574 4.05825 18.1825 4.37319 18.1825C4.68814 18.1825 4.99018 18.0574 5.21288 17.8347C5.43558 17.612 5.56069 17.31 5.56069 16.995V16.5775C5.56045 16.4188 5.52839 16.2618 5.46641 16.1156C5.40443 15.9695 5.31379 15.8373 5.19984 15.7268C5.08589 15.6163 4.95095 15.5298 4.80299 15.4724C4.65503 15.4149 4.49705 15.3877 4.3384 15.3924ZM20.7616 17.0066H39.2375V36.0066H20.7616V17.0066ZM55.5911 18.7879C55.2822 18.7969 54.989 18.926 54.7738 19.1477C54.5586 19.3695 54.4383 19.6664 54.4384 19.9754V20.4021C54.4384 20.7171 54.5635 21.0191 54.7862 21.2418C55.0089 21.4645 55.3109 21.5896 55.6259 21.5896C55.9408 21.5896 56.2429 21.4645 56.4656 21.2418C56.6883 21.0191 56.8134 20.7171 56.8134 20.4021V19.9754C56.8135 19.8164 56.7816 19.6591 56.7198 19.5127C56.6579 19.3664 56.5673 19.2339 56.4534 19.1231C56.3394 19.0124 56.2043 18.9257 56.0562 18.8681C55.9081 18.8105 55.7499 18.7832 55.5911 18.7879ZM29.9647 19.4999C29.6559 19.509 29.3627 19.6381 29.1475 19.8598C28.9322 20.0815 28.8119 20.3784 28.812 20.6874V22.1834H26.437C26.1221 22.1834 25.82 22.3085 25.5973 22.5312C25.3746 22.7539 25.2495 23.0559 25.2495 23.3709C25.2495 23.6858 25.3746 23.9879 25.5973 24.2106C25.82 24.4333 26.1221 24.5584 26.437 24.5584V24.5932H28.812V32.2655C28.812 32.5805 28.9371 32.8825 29.1598 33.1052C29.3825 33.3279 29.6846 33.453 29.9995 33.453C30.3145 33.453 30.6165 33.3279 30.8392 33.1052C31.0619 32.8825 31.187 32.5805 31.187 32.2655V24.5932H33.562C33.877 24.5932 34.179 24.4681 34.4017 24.2453C34.6244 24.0226 34.7495 23.7206 34.7495 23.4057C34.7495 23.0907 34.6244 22.7887 34.4017 22.566C34.179 22.3433 33.877 22.2182 33.562 22.2182H31.187V20.6874C31.1871 20.5285 31.1553 20.3712 31.0934 20.2248C31.0316 20.0784 30.941 19.9459 30.827 19.8352C30.713 19.7244 30.578 19.6377 30.4299 19.5801C30.2818 19.5225 30.1236 19.4952 29.9647 19.4999ZM58.4949 20.4555C58.2856 20.4643 58.0824 20.5283 57.9058 20.641L57.537 20.8428C57.4021 20.9214 57.2841 21.0259 57.1896 21.1502C57.0951 21.2745 57.0261 21.4162 56.9865 21.5672C56.9468 21.7182 56.9374 21.8756 56.9586 22.0303C56.9798 22.1849 57.0314 22.3339 57.1103 22.4687C57.2138 22.648 57.3625 22.7972 57.5415 22.9013C57.7205 23.0055 57.9237 23.061 58.1308 23.0624C58.3389 23.0635 58.5436 23.0099 58.7245 22.907L59.0933 22.6936C59.332 22.5684 59.521 22.3657 59.6292 22.1189C59.7374 21.872 59.7584 21.5957 59.6888 21.3353C59.6192 21.0749 59.4631 20.846 59.2461 20.6861C59.0291 20.5262 58.7642 20.4449 58.4949 20.4555ZM52.8148 20.4578C52.6037 20.4535 52.3953 20.5057 52.211 20.6088C52.0267 20.712 51.8733 20.8624 51.7665 21.0446C51.6876 21.1793 51.6361 21.3283 51.6149 21.483C51.5936 21.6376 51.6031 21.795 51.6427 21.946C51.6824 22.097 51.7514 22.2387 51.8459 22.363C51.9403 22.4873 52.0584 22.5918 52.1933 22.6704L52.562 22.8838C52.7429 22.9867 52.9477 23.0403 53.1558 23.0392C53.4191 23.0416 53.6758 22.9563 53.8854 22.7968C54.095 22.6374 54.2457 22.4128 54.3137 22.1583C54.3817 21.9039 54.3631 21.6341 54.261 21.3913C54.1589 21.1485 53.979 20.9466 53.7495 20.8173L53.3808 20.6155C53.2083 20.5164 53.0137 20.4621 52.8148 20.4578ZM58.154 23.5912C57.8987 23.5955 57.6515 23.6821 57.4493 23.8379C57.247 23.9938 57.1004 24.2107 57.0311 24.4565C56.9619 24.7022 56.9737 24.9638 57.0648 25.2023C57.1559 25.4409 57.3215 25.6437 57.537 25.7807L57.9058 25.9964C58.0414 26.0747 58.1911 26.1254 58.3463 26.1456C58.5016 26.1658 58.6593 26.1552 58.8104 26.1142C58.9615 26.0733 59.103 26.0028 59.2268 25.907C59.3506 25.8111 59.4542 25.6917 59.5316 25.5557C59.6863 25.2832 59.727 24.9606 59.6449 24.6583C59.5628 24.3559 59.3645 24.0982 59.0933 23.9414L58.7245 23.7281C58.5488 23.6354 58.3526 23.5884 58.154 23.5912ZM53.0839 23.5935C52.9019 23.5978 52.7234 23.6438 52.562 23.7281L52.1933 23.9414C51.9707 24.0738 51.7975 24.2753 51.7001 24.5152C51.6027 24.7551 51.5864 25.0203 51.6536 25.2704C51.7208 25.5204 51.868 25.7417 52.0726 25.9004C52.2772 26.0591 52.5281 26.1465 52.787 26.1494C52.9949 26.1513 53.1997 26.0985 53.3808 25.9964L53.7495 25.7807C53.9675 25.641 54.1339 25.434 54.2233 25.1911C54.3128 24.9481 54.3204 24.6827 54.245 24.435C54.1696 24.1874 54.0154 23.9711 53.8058 23.8192C53.5962 23.6673 53.3427 23.5881 53.0839 23.5935ZM55.5911 25.0222C55.2822 25.0313 54.989 25.1604 54.7738 25.3821C54.5586 25.6038 54.4383 25.9007 54.4384 26.2097V26.6249C54.4384 26.9398 54.5635 27.2419 54.7862 27.4646C55.0089 27.6873 55.3109 27.8124 55.6259 27.8124C55.9408 27.8124 56.2429 27.6873 56.4656 27.4646C56.6883 27.2419 56.8134 26.9398 56.8134 26.6249V26.2097C56.8135 26.0508 56.7816 25.8935 56.7198 25.7471C56.6579 25.6007 56.5673 25.4682 56.4534 25.3575C56.3394 25.2468 56.2043 25.16 56.0562 25.1024C55.9081 25.0449 55.7499 25.0176 55.5911 25.0222ZM8.70803 32.2539C8.31435 32.2539 7.93679 32.4103 7.65842 32.6887C7.38004 32.9671 7.22365 33.3446 7.22365 33.7383C7.22365 34.132 7.38004 34.5095 7.65842 34.7879C7.93679 35.0663 8.31435 35.2227 8.70803 35.2227C9.10171 35.2227 9.47927 35.0663 9.75764 34.7879C10.036 34.5095 10.1924 34.132 10.1924 33.7383C10.1924 33.3446 10.036 32.9671 9.75764 32.6887C9.47927 32.4103 9.10171 32.2539 8.70803 32.2539ZM11.1665 43.5004H48.8697C49.4995 43.5004 50.1036 43.7506 50.549 44.196C50.9944 44.6414 51.2447 45.2455 51.2447 45.8754V48.2504H47.812C47.7967 47.2591 47.3922 46.3136 46.6857 45.618C45.9793 44.9223 45.0276 44.5325 44.0362 44.5325H29.1321C28.1425 44.5385 27.1943 44.9304 26.4892 45.6247C25.7841 46.319 25.3776 47.261 25.3562 48.2504H21.1652C21.1438 47.261 20.7373 46.319 20.0322 45.6247C19.3271 44.9304 18.3789 44.5385 17.3893 44.5325H13.625C12.6335 44.5225 11.6778 44.903 10.9644 45.5917C10.251 46.2803 9.83705 47.222 9.81203 48.2133H8.75442L8.79153 45.8754C8.79153 45.2455 9.04175 44.6414 9.48715 44.196C9.93255 43.7506 10.5366 43.5004 11.1665 43.5004ZM13.5694 46.9075C13.5755 46.9075 13.5817 46.9075 13.5879 46.9075H17.3522C17.7122 46.9002 18.0612 47.0318 18.3267 47.2749C18.5923 47.518 18.7541 47.854 18.7786 48.2133V48.2504H12.187C12.2047 47.8932 12.3572 47.556 12.6138 47.3067C12.8703 47.0575 13.2118 46.9149 13.5694 46.9075ZM29.1043 46.9075C29.1136 46.9074 29.1228 46.9074 29.1321 46.9075H44.0478C44.4005 46.9124 44.7387 47.0492 44.9958 47.2908C45.2529 47.5324 45.4103 47.8615 45.437 48.2133L45.4486 48.2504H27.7428C27.7575 47.8957 27.9062 47.5599 28.1589 47.3106C28.4116 47.0613 28.7495 46.9173 29.1043 46.9075ZM5.06203 50.5883H54.937C55.4871 50.6851 55.9854 50.9726 56.3445 51.4004C56.7036 51.8282 56.9004 52.3688 56.9004 52.9273C56.9004 53.4858 56.7036 54.0265 56.3445 54.4542C55.9854 54.882 55.4871 55.1696 54.937 55.2664H5.06203C4.51199 55.1696 4.01365 54.882 3.65459 54.4542C3.29552 54.0265 3.0987 53.4858 3.0987 52.9273C3.0987 52.3688 3.29552 51.8282 3.65459 51.4004C4.01365 50.9726 4.51199 50.6851 5.06203 50.5883Z" fill="black"/>
</svg>
