<svg width="41" height="35" viewBox="0 0 41 35" fill="none" xmlns="http://www.w3.org/2000/svg">
    <path d="M4.919.4C2.606.4.7 2.305.7 4.619v11.25c0 1.819 1.184 3.368 2.813 3.955v8.7c0 3.09 2.535 5.626 5.625 5.626h5.625v-2.813H11.95v-11.25h9.844a1.406 1.406 0 0 0 1.406-1.406v-1.406h4.219a1.407 1.407 0 0 0 1.17-.626l2.813-4.22c.152-.229.235-.498.236-.774h8.437V8.843h-8.437v-.006c0-.277-.083-.549-.237-.78L28.59 3.84a1.406 1.406 0 0 0-1.17-.627H23.2V1.806A1.406 1.406 0 0 0 21.794.4H4.919Zm0 2.812h15.469v14.063H4.918a1.387 1.387 0 0 1-1.405-1.406V4.619c0-.792.614-1.407 1.406-1.407ZM23.2 6.025h3.466l2.16 3.24v1.956l-2.16 3.241H23.2V6.025ZM6.325 20.093h2.813v11.244a2.794 2.794 0 0 1-2.813-2.812v-8.432Z"
          fill="#0B0C0C"/>
</svg>