<svg width="50" height="51" viewBox="0 0 50 51" fill="none" xmlns="http://www.w3.org/2000/svg">
<circle cx="25" cy="25.2441" r="24" fill="#EEE8E1" stroke="#E3D9CE" stroke-width="2"/>
<path d="M29.495 19.9884H24.243L23.957 23.4724C25.1183 23.6284 26.089 23.8711 26.869 24.2004C27.6663 24.5124 28.3076 24.9024 28.793 25.3704C29.2956 25.8384 29.651 26.3844 29.859 27.0084C30.0843 27.6151 30.197 28.2911 30.197 29.0364C30.197 29.8684 30.0583 30.6138 29.781 31.2724C29.5036 31.9311 29.1136 32.4944 28.611 32.9624C28.1083 33.4304 27.5016 33.7944 26.791 34.0544C26.0803 34.2971 25.2916 34.4184 24.425 34.4184C23.7316 34.4184 23.125 34.3491 22.605 34.2104C22.085 34.0891 21.6343 33.9331 21.253 33.7424C20.889 33.5518 20.577 33.3524 20.317 33.1444C20.0743 32.9364 19.875 32.7544 19.719 32.5984L20.915 29.9984C21.0363 30.1544 21.201 30.3278 21.409 30.5184C21.6343 30.6918 21.8856 30.8651 22.163 31.0384C22.4576 31.1944 22.7783 31.3331 23.125 31.4544C23.4716 31.5584 23.8443 31.6104 24.243 31.6104C25.075 31.6104 25.7163 31.4198 26.167 31.0384C26.6176 30.6571 26.843 30.1111 26.843 29.4004C26.843 28.8458 26.7303 28.3604 26.505 27.9444C26.297 27.5284 25.9503 27.1818 25.465 26.9044C24.9796 26.6098 24.347 26.3844 23.567 26.2284C22.787 26.0551 21.8336 25.9424 20.707 25.8904L21.409 17.2064H29.495V19.9884Z" fill="#0B0C0C"/>
</svg>
