<svg width="50" height="51" viewBox="0 0 50 51" fill="none" xmlns="http://www.w3.org/2000/svg">
<circle cx="25" cy="25.2441" r="24" fill="#EEE8E1" stroke="#E3D9CE" stroke-width="2"/>
<path d="M30.743 28.6464C30.743 30.4318 30.2923 31.8444 29.391 32.8844C28.507 33.9071 27.2243 34.4184 25.543 34.4184C24.659 34.4184 23.853 34.2538 23.125 33.9244C22.397 33.5951 21.773 33.0838 21.253 32.3904C20.733 31.6798 20.3343 30.7871 20.057 29.7124C19.7796 28.6378 19.641 27.3464 19.641 25.8384C19.641 24.2438 19.849 22.8831 20.265 21.7564C20.6983 20.6124 21.253 19.6851 21.929 18.9744C22.6223 18.2464 23.411 17.7178 24.295 17.3884C25.1963 17.0591 26.115 16.8944 27.051 16.8944C27.935 16.8944 28.611 16.9724 29.079 17.1284C29.5643 17.2671 29.9196 17.3884 30.145 17.4924L29.599 20.1964C29.4083 20.1098 29.131 20.0144 28.767 19.9104C28.403 19.7891 27.8916 19.7284 27.233 19.7284C26.089 19.7284 25.1183 20.1184 24.321 20.8984C23.541 21.6784 23.099 22.8571 22.995 24.4344C23.3936 24.1918 23.8443 23.9924 24.347 23.8364C24.867 23.6631 25.439 23.5764 26.063 23.5764C27.5016 23.5764 28.637 24.0098 29.469 24.8764C30.3183 25.7431 30.743 26.9998 30.743 28.6464ZM25.257 26.0984C24.8063 26.0984 24.3903 26.1504 24.009 26.2544C23.6276 26.3584 23.2896 26.4971 22.995 26.6704C23.047 28.4211 23.3243 29.6951 23.827 30.4924C24.347 31.2724 24.9623 31.6624 25.673 31.6624C26.2796 31.6624 26.7476 31.4284 27.077 30.9604C27.4236 30.4924 27.597 29.7818 27.597 28.8284C27.597 27.8578 27.3976 27.1644 26.999 26.7484C26.6176 26.3151 26.037 26.0984 25.257 26.0984Z" fill="#0B0C0C"/>
</svg>
