<svg width="21" height="21" viewBox="0 0 21 21" fill="none" xmlns="http://www.w3.org/2000/svg">
<circle cx="10.5" cy="10.5" r="10.5" fill="#E3D9CE"/>
<path d="M13.125 7.605C13.125 7.925 13.08 8.21 12.99 8.46C12.91 8.71 12.79 8.93 12.63 9.12C12.48 9.3 12.3 9.46 12.09 9.6C11.89 9.74 11.67 9.86 11.43 9.96V9.99C11.68 10.06 11.92 10.155 12.15 10.275C12.39 10.395 12.595 10.55 12.765 10.74C12.945 10.92 13.085 11.145 13.185 11.415C13.295 11.685 13.35 12 13.35 12.36C13.35 12.78 13.275 13.165 13.125 13.515C12.985 13.855 12.775 14.15 12.495 14.4C12.215 14.65 11.875 14.845 11.475 14.985C11.075 15.115 10.62 15.18 10.11 15.18C9.7 15.18 9.335 15.13 9.015 15.03C8.705 14.93 8.435 14.815 8.205 14.685C7.985 14.555 7.805 14.425 7.665 14.295C7.525 14.155 7.425 14.05 7.365 13.98L8.13 12.57C8.2 12.65 8.285 12.75 8.385 12.87C8.495 12.98 8.625 13.09 8.775 13.2C8.935 13.3 9.115 13.385 9.315 13.455C9.515 13.525 9.745 13.56 10.005 13.56C10.485 13.56 10.845 13.455 11.085 13.245C11.335 13.035 11.46 12.74 11.46 12.36C11.46 11.87 11.275 11.5 10.905 11.25C10.545 11 10.03 10.875 9.36 10.875H8.76L8.64 9.45H9.015C9.845 9.45 10.435 9.305 10.785 9.015C11.145 8.715 11.325 8.32 11.325 7.83C11.325 7.49 11.22 7.21 11.01 6.99C10.8 6.77 10.485 6.66 10.065 6.66C9.835 6.66 9.625 6.69 9.435 6.75C9.245 6.8 9.075 6.865 8.925 6.945C8.775 7.025 8.645 7.11 8.535 7.2C8.425 7.28 8.34 7.355 8.28 7.425L7.59 6.165C7.68 6.075 7.805 5.97 7.965 5.85C8.125 5.72 8.325 5.6 8.565 5.49C8.805 5.37 9.08 5.27 9.39 5.19C9.7 5.11 10.05 5.07 10.44 5.07C11.27 5.07 11.925 5.295 12.405 5.745C12.885 6.195 13.125 6.815 13.125 7.605Z" fill="#0B0C0C"/>
</svg>
