<svg width="50" height="50" viewBox="0 0 50 50" fill="none" xmlns="http://www.w3.org/2000/svg">
<circle cx="25" cy="25" r="24" fill="#EEE8E1" stroke="#E3D9CE" stroke-width="2"/>
<path d="M29.6774 21.0448C29.6774 21.5995 29.5994 22.0935 29.4434 22.5268C29.3048 22.9601 29.0968 23.3415 28.8194 23.6708C28.5594 23.9828 28.2474 24.2601 27.8834 24.5028C27.5368 24.7455 27.1554 24.9535 26.7394 25.1268V25.1788C27.1728 25.3001 27.5888 25.4648 27.9874 25.6728C28.4034 25.8808 28.7588 26.1495 29.0534 26.4788C29.3654 26.7908 29.6081 27.1808 29.7814 27.6488C29.9721 28.1168 30.0674 28.6628 30.0674 29.2868C30.0674 30.0148 29.9374 30.6821 29.6774 31.2888C29.4348 31.8781 29.0708 32.3895 28.5854 32.8228C28.1001 33.2561 27.5108 33.5941 26.8174 33.8368C26.1241 34.0621 25.3354 34.1748 24.4514 34.1748C23.7408 34.1748 23.1081 34.0881 22.5534 33.9148C22.0161 33.7415 21.5481 33.5421 21.1494 33.3168C20.7681 33.0915 20.4561 32.8661 20.2134 32.6408C19.9708 32.3981 19.7974 32.2161 19.6934 32.0948L21.0194 29.6508C21.1408 29.7895 21.2881 29.9628 21.4614 30.1708C21.6521 30.3615 21.8774 30.5521 22.1374 30.7428C22.4148 30.9161 22.7268 31.0635 23.0734 31.1848C23.4201 31.3061 23.8188 31.3668 24.2694 31.3668C25.1014 31.3668 25.7254 31.1848 26.1414 30.8208C26.5748 30.4568 26.7914 29.9455 26.7914 29.2868C26.7914 28.4375 26.4708 27.7961 25.8294 27.3628C25.2054 26.9295 24.3128 26.7128 23.1514 26.7128H22.1114L21.9034 24.2428H22.5534C23.9921 24.2428 25.0148 23.9915 25.6214 23.4888C26.2454 22.9688 26.5574 22.2841 26.5574 21.4348C26.5574 20.8455 26.3754 20.3601 26.0114 19.9788C25.6474 19.5975 25.1014 19.4068 24.3734 19.4068C23.9748 19.4068 23.6108 19.4588 23.2814 19.5628C22.9521 19.6495 22.6574 19.7621 22.3974 19.9008C22.1374 20.0395 21.9121 20.1868 21.7214 20.3428C21.5308 20.4815 21.3834 20.6115 21.2794 20.7328L20.0834 18.5488C20.2394 18.3928 20.4561 18.2108 20.7334 18.0028C21.0108 17.7775 21.3574 17.5695 21.7734 17.3788C22.1894 17.1708 22.6661 16.9975 23.2034 16.8588C23.7408 16.7201 24.3474 16.6508 25.0234 16.6508C26.4621 16.6508 27.5974 17.0408 28.4294 17.8208C29.2614 18.6008 29.6774 19.6755 29.6774 21.0448Z" fill="#0B0C0C"/>
</svg>
