<svg width="50" height="50" viewBox="0 0 50 50" fill="none" xmlns="http://www.w3.org/2000/svg">
<circle cx="25" cy="25" r="24" fill="#EEE8E1" stroke="#E3D9CE" stroke-width="2"/>
<path d="M29.9634 21.6427C29.9634 22.4401 29.8421 23.2027 29.5994 23.9307C29.3741 24.6587 29.0188 25.4041 28.5334 26.1667C28.0481 26.9121 27.4414 27.7007 26.7134 28.5327C26.0028 29.3474 25.1534 30.2401 24.1654 31.2107V31.2627H30.2754V33.8627H20.1874L19.9534 31.8607C21.3574 30.3354 22.4928 29.0701 23.3594 28.0647C24.2261 27.0594 24.8934 26.2101 25.3614 25.5167C25.8468 24.8061 26.1761 24.1907 26.3494 23.6707C26.5228 23.1334 26.6094 22.5787 26.6094 22.0067C26.6094 21.1747 26.4014 20.5334 25.9854 20.0827C25.5868 19.6147 24.9801 19.3807 24.1654 19.3807C23.7321 19.3807 23.3334 19.4414 22.9694 19.5627C22.6228 19.6667 22.3021 19.7967 22.0074 19.9527C21.7301 20.1087 21.4874 20.2821 21.2794 20.4727C21.0714 20.6461 20.9068 20.8021 20.7854 20.9407L19.6414 18.7307C19.8148 18.5574 20.0401 18.3494 20.3174 18.1067C20.6121 17.8641 20.9674 17.6301 21.3834 17.4047C21.7994 17.1794 22.2761 16.9974 22.8134 16.8587C23.3681 16.7027 24.0008 16.6247 24.7114 16.6247C26.3234 16.6247 27.5974 17.0581 28.5334 17.9247C29.4868 18.7914 29.9634 20.0307 29.9634 21.6427Z" fill="#0B0C0C"/>
</svg>
