<svg width="57" height="61" viewBox="0 0 57 61" fill="none" xmlns="http://www.w3.org/2000/svg">
<path d="M6.125 0.5C3.0332 0.5 0.5 3.0332 0.5 6.125C0.5 9.2168 3.0332 11.75 6.125 11.75H18H29.875C32.9668 11.75 35.5 9.2168 35.5 6.125C35.5 3.0332 32.9668 0.5 29.875 0.5H18H6.125ZM6.125 3H16.75V9.25H6.125C4.3843 9.25 3 7.8657 3 6.125C3 4.3843 4.3843 3 6.125 3ZM19.25 3H29.875C31.6157 3 33 4.3843 33 6.125C33 7.8657 31.6157 9.25 29.875 9.25H19.25V3ZM25.5 13C25.1685 13 24.8506 13.1317 24.6162 13.3662C24.3817 13.6006 24.25 13.9185 24.25 14.25V21.75C24.25 22.0815 24.3817 22.3994 24.6162 22.6338C24.8506 22.8683 25.1685 23 25.5 23H28.4775L24.3821 31.1909C24.2952 31.3645 24.25 31.5559 24.25 31.75V59.25C24.25 59.5815 24.3817 59.8994 24.6162 60.1338C24.8506 60.3683 25.1685 60.5 25.5 60.5H55.5C55.8315 60.5 56.1494 60.3683 56.3838 60.1338C56.6183 59.8994 56.75 59.5815 56.75 59.25V31.75C56.75 31.5559 56.7048 31.3645 56.6179 31.1909L52.5225 23H55.5C55.8315 23 56.1494 22.8683 56.3838 22.6338C56.6183 22.3994 56.75 22.0815 56.75 21.75V14.25C56.75 13.9185 56.6183 13.6006 56.3838 13.3662C56.1494 13.1317 55.8315 13 55.5 13H31.75H25.5ZM26.75 15.5H30.5V20.5H26.75V15.5ZM33 15.5H36.75V20.5H33V15.5ZM39.25 15.5H43V20.5H39.25V15.5ZM45.5 15.5H49.25V20.5H45.5V15.5ZM51.75 15.5H54.25V20.5H51.75V15.5ZM14.2312 19.2324C13.8999 19.2374 13.5841 19.3737 13.3533 19.6114C13.1224 19.8491 12.9953 20.1687 13 20.5V22.375H11.125C10.9594 22.3727 10.7949 22.4033 10.6412 22.465C10.4875 22.5268 10.3476 22.6185 10.2296 22.7348C10.1117 22.8511 10.018 22.9897 9.95406 23.1425C9.89012 23.2953 9.8572 23.4593 9.8572 23.625C9.8572 23.7907 9.89012 23.9547 9.95406 24.1075C10.018 24.2603 10.1117 24.3989 10.2296 24.5152C10.3476 24.6315 10.4875 24.7232 10.6412 24.785C10.7949 24.8467 10.9594 24.8773 11.125 24.875H13V26.75C12.9977 26.9156 13.0283 27.0801 13.09 27.2338C13.1518 27.3875 13.2435 27.5274 13.3598 27.6454C13.4761 27.7633 13.6147 27.857 13.7675 27.9209C13.9203 27.9849 14.0843 28.0178 14.25 28.0178C14.4157 28.0178 14.5797 27.9849 14.7325 27.9209C14.8853 27.857 15.0239 27.7633 15.1402 27.6454C15.2565 27.5274 15.3482 27.3875 15.41 27.2338C15.4717 27.0801 15.5023 26.9156 15.5 26.75V24.875H17.375C17.5406 24.8773 17.7051 24.8467 17.8588 24.785C18.0125 24.7232 18.1524 24.6315 18.2704 24.5152C18.3883 24.3989 18.482 24.2603 18.5459 24.1075C18.6099 23.9547 18.6428 23.7907 18.6428 23.625C18.6428 23.4593 18.6099 23.2953 18.5459 23.1425C18.482 22.9897 18.3883 22.8511 18.2704 22.7348C18.1524 22.6185 18.0125 22.5268 17.8588 22.465C17.7051 22.4033 17.5406 22.3727 17.375 22.375H15.5V20.5C15.5024 20.3328 15.4711 20.1668 15.4082 20.0119C15.3452 19.8569 15.2519 19.7162 15.1335 19.598C15.0152 19.4798 14.8744 19.3866 14.7194 19.3238C14.5644 19.261 14.3984 19.2299 14.2312 19.2324ZM31.2725 23H31.75H49.7275L54.25 32.0452V58H26.75V32.0452L31.2725 23ZM31.6111 31.75C31.2796 31.75 30.9617 31.8817 30.7272 32.1162C30.4928 32.3506 30.3611 32.6685 30.3611 33V53C30.3611 53.3315 30.4928 53.6494 30.7272 53.8838C30.9617 54.1183 31.2796 54.25 31.6111 54.25H49.3889C49.7204 54.25 50.0383 54.1183 50.2728 53.8838C50.5072 53.6494 50.6389 53.3315 50.6389 53V33C50.6389 32.6685 50.5072 32.3506 50.2728 32.1162C50.0383 31.8817 49.7204 31.75 49.3889 31.75H31.6111ZM32.8611 34.25H48.1389V51.75H32.8611V34.25ZM14.2312 35.4824C13.8999 35.4874 13.5841 35.6237 13.3533 35.8614C13.1224 36.0991 12.9953 36.4187 13 36.75V39.875H9.875C9.70936 39.8727 9.54491 39.9033 9.3912 39.965C9.23749 40.0268 9.09758 40.1185 8.97962 40.2348C8.86166 40.3511 8.76799 40.4897 8.70406 40.6425C8.64012 40.7953 8.6072 40.9593 8.6072 41.125C8.6072 41.2907 8.64012 41.4547 8.70406 41.6075C8.76799 41.7603 8.86166 41.8989 8.97962 42.0152C9.09758 42.1315 9.23749 42.2232 9.3912 42.285C9.54491 42.3467 9.70936 42.3773 9.875 42.375H13V45.5C12.9977 45.6656 13.0283 45.8301 13.09 45.9838C13.1518 46.1375 13.2435 46.2774 13.3598 46.3954C13.4761 46.5133 13.6147 46.607 13.7675 46.6709C13.9203 46.7349 14.0843 46.7678 14.25 46.7678C14.4157 46.7678 14.5797 46.7349 14.7325 46.6709C14.8853 46.607 15.0239 46.5133 15.1402 46.3954C15.2565 46.2774 15.3482 46.1375 15.41 45.9838C15.4717 45.8301 15.5023 45.6656 15.5 45.5V42.375H18.625C18.7906 42.3773 18.9551 42.3467 19.1088 42.285C19.2625 42.2232 19.4024 42.1315 19.5204 42.0152C19.6383 41.8989 19.732 41.7603 19.7959 41.6075C19.8599 41.4547 19.8928 41.2907 19.8928 41.125C19.8928 40.9593 19.8599 40.7953 19.7959 40.6425C19.732 40.4897 19.6383 40.3511 19.5204 40.2348C19.4024 40.1185 19.2625 40.0268 19.1088 39.965C18.9551 39.9033 18.7906 39.8727 18.625 39.875H15.5V36.75C15.5024 36.5828 15.4711 36.4168 15.4082 36.2619C15.3452 36.1069 15.2519 35.9662 15.1335 35.848C15.0152 35.7298 14.8744 35.6366 14.7194 35.5738C14.5644 35.511 14.3984 35.4799 14.2312 35.4824ZM40.5 38C37.7534 38 35.5 40.2534 35.5 43C35.5 45.7466 37.7534 48 40.5 48C43.2466 48 45.5 45.7466 45.5 43C45.5 40.2534 43.2466 38 40.5 38ZM40.5 40.5C41.8955 40.5 43 41.6045 43 43C43 44.3955 41.8955 45.5 40.5 45.5C39.1045 45.5 38 44.3955 38 43C38 41.6045 39.1045 40.5 40.5 40.5Z" fill="black"/>
</svg>
