<svg width="62" height="57" viewBox="0 0 62 57" fill="none" xmlns="http://www.w3.org/2000/svg">
<path d="M58.1333 9.4875C58.0834 9.17285 57.9153 8.88911 57.6632 8.69426C57.4112 8.49941 57.0942 8.40815 56.7772 8.43913C55.5611 8.55649 54.4368 9.13735 53.6375 10.0613C52.8381 10.9852 52.4249 12.1813 52.4837 13.4016L52.6581 20.5399C51.6904 20.6743 50.7713 21.0468 49.9831 21.6239C49.1949 22.2009 48.5621 22.9646 48.1417 23.8464L45.4496 29.499C45.0469 30.3414 44.4601 31.0825 43.7324 31.6675L43.1729 32.1162C41.7938 33.2168 40.6835 34.6171 39.9264 36.2109C39.1692 37.8047 38.7852 39.55 38.8034 41.3144L38.0723 40.9661C37.773 40.8236 37.4293 40.8058 37.1169 40.9166C36.8044 41.0275 36.5488 41.2579 36.4063 41.5573L33.4543 47.755C33.3118 48.0543 33.2939 48.398 33.4048 48.7104C33.5156 49.0228 33.746 49.2784 34.0453 49.421L47.6474 55.8991C47.7956 55.9698 47.9563 56.0106 48.1202 56.0192C48.2842 56.0277 48.4482 56.0039 48.6029 55.949C48.7577 55.8941 48.9001 55.8092 49.022 55.6993C49.1439 55.5893 49.2429 55.4564 49.3134 55.3081L52.2656 49.1096C52.4081 48.8103 52.4259 48.4667 52.3151 48.1542C52.2042 47.8418 51.9738 47.5862 51.6746 47.4436L51.2246 47.2296L51.0903 45.4354C51.0372 44.7423 51.2555 44.0557 51.6993 43.5207L58.7433 34.9969C58.7611 34.9754 58.7782 34.9533 58.7943 34.9306C60.2775 32.8597 61.0596 30.3687 61.0263 27.8216C61.0254 27.7625 61.0203 27.7034 61.0111 27.645L58.1333 9.4875ZM47.5938 53.1046L36.2488 47.7014L38.1259 43.7601L49.4711 49.1632L47.5938 53.1046ZM56.7893 33.4375L49.7728 41.9281C48.9167 42.9603 48.4953 44.2848 48.5978 45.6219L48.6256 45.9915L41.4027 42.5516C41.1659 40.9691 41.3493 39.352 41.9345 37.8627C42.5197 36.3734 43.4861 35.064 44.7369 34.066L45.2963 33.6174C46.3178 32.7962 47.1416 31.7559 47.7066 30.5732L50.3988 24.9207C50.6932 24.3044 51.1658 23.7906 51.7555 23.446C52.3452 23.1014 53.0248 22.9417 53.7063 22.9877L49.9207 30.9364C49.85 31.0846 49.8093 31.2453 49.8008 31.4092C49.7922 31.5732 49.8161 31.7372 49.8709 31.892C49.9258 32.0467 50.0106 32.1891 50.1206 32.3111C50.2305 32.433 50.3634 32.5322 50.5116 32.6028C50.6598 32.6734 50.8205 32.7141 50.9845 32.7225C51.1484 32.731 51.3125 32.7071 51.4672 32.6522C51.6219 32.5973 51.7643 32.5124 51.8862 32.4025C52.0082 32.2925 52.1072 32.1596 52.1778 32.0114L56.6028 22.7197C56.7453 22.4205 56.7632 22.0768 56.6523 21.7644C56.5415 21.4519 56.3111 21.1963 56.0118 21.0537C55.7377 20.9232 55.454 20.8139 55.1632 20.7269L54.9826 13.325C54.9826 13.3142 54.9822 13.3033 54.9814 13.2924C54.9619 12.9189 55.0355 12.5464 55.1956 12.2084C55.3556 11.8704 55.5971 11.5775 55.8984 11.3559L58.5282 27.9459C58.5357 29.913 57.9277 31.8332 56.7893 33.4375ZM10.9096 45.4354L10.7753 47.2296L10.3259 47.4436C10.0266 47.5862 9.79623 47.8418 9.6854 48.1542C9.57457 48.4667 9.59238 48.8103 9.73493 49.1096L12.6878 55.3081C12.7583 55.4564 12.8573 55.5893 12.9792 55.6993C13.1012 55.8092 13.2436 55.8941 13.3983 55.949C13.553 56.0039 13.7171 56.0277 13.881 56.0192C14.045 56.0106 14.2056 55.9698 14.3538 55.8991L27.9553 49.421C28.2546 49.2784 28.485 49.0228 28.5958 48.7104C28.7067 48.398 28.6888 48.0543 28.5463 47.755L25.5943 41.5566C25.4518 41.2573 25.1962 41.0269 24.8837 40.916C24.5713 40.8052 24.2276 40.823 23.9283 40.9655L23.1972 41.3138C23.2154 39.5494 22.8314 37.8041 22.0743 36.2103C21.3171 34.6165 20.2069 33.2162 18.8277 32.1156L18.2681 31.6669C17.5404 31.0818 16.9537 30.3407 16.5511 29.4984L13.8589 23.8456C13.4384 22.9639 12.8057 22.2002 12.0175 21.6232C11.2293 21.0461 10.3101 20.6737 9.34255 20.5392L9.51693 13.401C9.57566 12.1807 9.16251 10.9846 8.36314 10.0606C7.56378 9.13673 6.43951 8.55587 5.22343 8.4385C4.90622 8.40732 4.58909 8.49859 4.33698 8.6936C4.08487 8.88862 3.91684 9.17264 3.8673 9.4875L0.988928 27.645C0.979724 27.7034 0.974629 27.7625 0.973678 27.8216C0.940366 30.3687 1.72246 32.8597 3.20568 34.9306C3.2218 34.9533 3.23893 34.9754 3.25668 34.9969L10.3003 43.5207C10.7443 44.0557 10.9627 44.7423 10.9096 45.4354ZM25.7518 47.7014L14.4068 53.1046L12.5296 49.1632L23.8753 43.7601L25.7518 47.7014ZM3.47243 27.9457L6.10218 11.3558C6.40346 11.5773 6.64497 11.8703 6.80503 12.2083C6.96509 12.5463 7.03867 12.9188 7.01918 13.2922C7.01868 13.3032 7.0183 13.314 7.01805 13.3249L6.8378 20.7267C6.54697 20.8138 6.26326 20.9231 5.98918 21.0536C5.68989 21.1962 5.45948 21.4518 5.34865 21.7642C5.23782 22.0767 5.25563 22.4203 5.39818 22.7196L9.82318 32.0112C9.96579 32.3105 10.2214 32.5408 10.5338 32.6516C10.8462 32.7624 11.1898 32.7445 11.4891 32.602C11.7884 32.4595 12.0187 32.2039 12.1296 31.8915C12.2405 31.5792 12.2227 31.2355 12.0803 30.9362L8.2943 22.9875C8.97576 22.9415 9.65533 23.1012 10.245 23.4458C10.8347 23.7904 11.3074 24.3041 11.6018 24.9204L14.2941 30.573C14.859 31.7556 15.6827 32.7959 16.7042 33.6171L17.2637 34.0658C18.5145 35.0638 19.4809 36.3731 20.0661 37.8625C20.6513 39.3518 20.8347 40.9688 20.5979 42.5514L13.3753 45.9916L13.4029 45.6219C13.5055 44.2848 13.0841 42.9602 12.2279 41.9281L5.2113 33.4375C4.07289 31.8332 3.46487 29.9129 3.47243 27.9457ZM18.6253 18.5H26.1253V26C26.1253 26.3315 26.257 26.6495 26.4914 26.8839C26.7258 27.1183 27.0438 27.25 27.3753 27.25H34.6253C34.9568 27.25 35.2748 27.1183 35.5092 26.8839C35.7436 26.6495 35.8753 26.3315 35.8753 26V18.5H43.3753C43.7068 18.5 44.0248 18.3683 44.2592 18.1339C44.4936 17.8995 44.6253 17.5815 44.6253 17.25V10C44.6253 9.66848 44.4936 9.35054 44.2592 9.11612C44.0248 8.8817 43.7068 8.75 43.3753 8.75H35.8753V1.25C35.8753 0.918479 35.7436 0.600537 35.5092 0.366117C35.2748 0.131696 34.9568 0 34.6253 0H27.3753C27.0438 0 26.7258 0.131696 26.4914 0.366117C26.257 0.600537 26.1253 0.918479 26.1253 1.25V8.75H18.6253C18.2938 8.75 17.9758 8.8817 17.7414 9.11612C17.507 9.35054 17.3753 9.66848 17.3753 10V17.25C17.3753 17.5815 17.507 17.8995 17.7414 18.1339C17.9758 18.3683 18.2938 18.5 18.6253 18.5ZM19.8753 11.25H27.3753C27.7068 11.25 28.0248 11.1183 28.2592 10.8839C28.4936 10.6495 28.6253 10.3315 28.6253 10V2.5H33.3753V10C33.3753 10.3315 33.507 10.6495 33.7414 10.8839C33.9758 11.1183 34.2938 11.25 34.6253 11.25H42.1253V16H34.6253C34.2938 16 33.9758 16.1317 33.7414 16.3661C33.507 16.6005 33.3753 16.9185 33.3753 17.25V24.75H28.6253V17.25C28.6253 16.9185 28.4936 16.6005 28.2592 16.3661C28.0248 16.1317 27.7068 16 27.3753 16H19.8753V11.25Z" fill="black"/>
</svg>
