<svg width="37" height="40" viewBox="0 0 37 40" fill="none" xmlns="http://www.w3.org/2000/svg">
    <path d="M18.446.601a1.381 1.381 0 0 0-.993.48l-8.29 9.675c-.216.251-.335.571-.335.902v11.624L.5 28.448l1.457 2.354 1.344-.831v9.33h13.817V32.39c0-.779.604-1.383 1.382-1.383.778 0 1.382.604 1.382 1.383v6.91h13.817v-9.33l1.344.832 1.457-2.354-8.328-5.166V11.658c0-.331-.119-.65-.335-.902l-8.29-9.674a1.383 1.383 0 0 0-1.101-.48Zm.054 3.504 6.909 8.066v9.4l-6.18-3.834a1.381 1.381 0 0 0-1.458 0l-6.18 3.833v-9.4L18.5 4.106Zm0 7.553a1.381 1.381 0 1 0 0 2.763 1.381 1.381 0 0 0 0-2.763Zm0 8.881 12.435 7.715v8.282h-8.29V32.39c0-2.274-1.872-4.147-4.145-4.147-2.273 0-4.145 1.873-4.145 4.147v4.146h-8.29v-8.282L18.5 20.539Z"
          fill="#0B0C0C"/>
</svg>