<svg width="53" height="55" viewBox="0 0 53 55" fill="none" xmlns="http://www.w3.org/2000/svg">
<path d="M41.2241 0.419922C39.0008 0.419922 37.1907 2.22909 37.1907 4.45358C37.1907 6.67702 39.0008 8.48655 41.2241 8.48655C43.4487 8.48655 45.2575 6.67702 45.2575 4.45358C45.2575 2.22909 43.4487 0.419922 41.2241 0.419922ZM41.2241 2.72483C42.178 2.72483 42.9529 3.50036 42.9529 4.45358C42.9529 5.40633 42.178 6.18209 41.2241 6.18209C40.2714 6.18209 39.4954 5.40633 39.4954 4.45358C39.4954 3.50024 40.2714 2.72483 41.2241 2.72483ZM29.1022 2.72506C28.9889 2.7274 28.874 2.74683 28.7608 2.7847C28.1571 2.98556 27.8298 3.63818 28.0318 4.24201C28.2327 4.84561 28.8859 5.17198 29.4896 4.97055C30.0933 4.76912 30.4194 4.11731 30.2186 3.51302C30.0544 3.02297 29.5932 2.71493 29.1022 2.72506ZM7.2068 3.8774C7.09345 3.87977 6.97859 3.89917 6.86537 3.93705C6.26166 4.1379 5.93495 4.79042 6.13638 5.39413C6.33723 5.99796 6.99007 6.32444 7.59436 6.1229C8.19819 5.92147 8.52411 5.26908 8.32268 4.66536C8.15949 4.17485 7.69796 3.86714 7.2068 3.8774ZM15.0765 5.02997C12.7068 5.02997 10.7788 6.95715 10.7788 9.3274C10.7788 13.0808 14.218 15.0336 17.4066 18.223C17.8566 18.6729 18.5861 18.6729 19.0361 18.223C22.2173 15.0417 25.6677 13.0808 25.6677 9.3274C25.6677 6.95715 23.7381 5.02997 21.3667 5.02997C19.8871 5.02997 18.9252 5.59821 18.2216 6.40738C17.5174 5.59821 16.5555 5.02997 15.0765 5.02997ZM15.0765 7.33398C15.9432 7.33398 16.4539 7.58258 17.1908 9.05642C17.3859 9.44672 17.7848 9.69291 18.2216 9.69291C18.6577 9.69291 19.0567 9.44672 19.2524 9.05642C19.9887 7.58258 20.4995 7.33398 21.3667 7.33398C22.4675 7.33398 23.3628 8.22819 23.3628 9.32718C23.3628 11.6217 21.0257 13.1667 18.2216 15.8039C15.4439 13.1915 13.0838 11.6275 13.0838 9.32718C13.0838 8.22819 13.9775 7.33398 15.0765 7.33398ZM46.3865 10.7912C46.2731 10.7935 46.1581 10.8127 46.0448 10.8504C45.4411 11.0513 45.1152 11.7045 45.3161 12.3082C45.5182 12.9119 46.1701 13.2378 46.7738 13.037C47.3777 12.835 47.7047 12.1831 47.5026 11.5794C47.3394 11.0889 46.8778 10.7813 46.3865 10.7912ZM30.1373 14.248C27.2344 14.248 24.8716 16.6104 24.8716 19.5144C24.8715 24.2297 29.2831 26.7457 33.4359 30.8985C33.8859 31.3485 34.6158 31.3485 35.0658 30.8985C39.1924 26.772 43.6346 24.2337 43.6346 19.5144C43.6346 16.6104 41.2712 14.248 38.3649 14.248C36.3734 14.248 35.1419 15.0997 34.2511 16.2624C33.3604 15.0997 32.1288 14.248 30.1373 14.248ZM30.1371 16.553C31.5615 16.553 32.2824 17.1244 33.2203 19.0012C33.4154 19.3915 33.8147 19.6382 34.2509 19.6382C34.687 19.6382 35.0866 19.3914 35.2817 19.0012C36.2195 17.1245 36.9402 16.553 38.3646 16.553C40.0003 16.553 41.3308 17.8808 41.3308 19.5142C41.3308 22.7786 38.0422 24.8644 34.2509 28.4743C30.4699 24.8735 27.1757 22.7804 27.1757 19.5142C27.1755 17.8808 28.5048 16.553 30.1371 16.553ZM8.35937 17.7051C8.24602 17.7074 8.13093 17.7267 8.01771 17.7645C7.414 17.9659 7.08752 18.6179 7.28895 19.2216C7.49038 19.8254 8.14299 20.1521 8.74671 19.9506C9.35042 19.7497 9.67633 19.0965 9.47547 18.4928C9.31191 18.0022 8.85055 17.6949 8.35937 17.7051ZM49.291 20.0102C47.7024 20.0102 46.4099 21.3022 46.4099 22.8909C46.4099 24.4795 47.7024 25.7713 49.291 25.7713C50.8796 25.7713 52.1709 24.4795 52.1709 22.8909C52.1709 21.3022 50.8796 20.0102 49.291 20.0102ZM49.291 22.3145C49.6078 22.3145 49.8671 22.5733 49.8671 22.8906C49.8671 23.208 49.6078 23.4668 49.291 23.4668C48.973 23.4668 48.7148 23.208 48.7148 22.8906C48.7148 22.5734 48.9732 22.3145 49.291 22.3145ZM9.53467 24.6194C7.62858 24.6194 6.07741 26.1696 6.07741 28.0762C6.07741 29.9828 7.62869 31.5334 9.53467 31.5334C11.4406 31.5334 12.9919 29.9828 12.9919 28.0762C12.9919 26.1696 11.4406 24.6194 9.53467 24.6194ZM9.53489 26.9238C10.1701 26.9237 10.6872 27.4415 10.6872 28.0762C10.6872 28.7122 10.1702 29.2285 9.53489 29.2285C8.89949 29.2285 8.38232 28.7122 8.38232 28.0762C8.38232 27.4415 8.89949 26.9238 9.53489 26.9238ZM19.883 26.9243C19.7697 26.9265 19.6548 26.9458 19.5416 26.9835C18.9379 27.1843 18.6112 27.8375 18.8126 28.4412C19.014 29.0449 19.6667 29.3709 20.2704 29.17C20.8741 28.9691 21.2002 28.316 20.9994 27.7122C20.8358 27.2216 20.3742 26.9144 19.883 26.9243ZM47.7178 29.1684C46.5768 29.1673 45.4338 29.6022 44.5574 30.4785L35.8716 39.2343C35.3023 37.7834 33.9478 36.7285 32.3385 36.5851L10.9121 34.2446C10.5643 34.2068 10.2193 34.3285 9.97197 34.5752L1.16757 43.3803C0.717581 43.8302 0.717581 44.559 1.16757 45.0091L10.4007 54.2423C10.8513 54.6921 11.5807 54.6921 12.0307 54.2423L14.5744 51.6985L34.6711 52.4541C34.9902 52.4667 35.3026 52.3438 35.5286 52.1176L50.8658 36.7802C52.6036 35.0423 52.6036 32.2128 50.8658 30.4749C49.9975 29.6066 48.8587 29.1695 47.7178 29.1684ZM47.713 31.474C48.264 31.474 48.8152 31.6844 49.2358 32.1051C50.0764 32.9441 50.0764 34.3111 49.2361 35.1503L34.2542 50.1319L14.6104 49.3939L9.77166 44.5558C9.32167 44.1058 8.59228 44.1058 8.1424 44.5558C7.69241 45.0057 7.69241 45.7345 8.1424 46.1857L12.4857 50.5291L11.2157 51.7987L3.61248 44.1955L11.211 36.5956C15.7972 37.0973 32.1112 38.8788 32.1271 38.8798C33.0225 38.9567 33.7445 39.6603 33.8444 40.5532C33.9717 41.6966 33.0512 42.6986 31.8838 42.6504L20.0698 42.1361C19.4345 42.1074 18.8962 42.6021 18.8687 43.238C18.8411 43.874 19.334 44.4111 19.9699 44.4386L31.7839 44.9528C33.423 45.0252 34.944 44.1344 35.6924 42.6882L46.1905 32.1051C46.6111 31.6844 47.1621 31.474 47.713 31.474Z" fill="black"/>
</svg>
